<svg xmlns="http://www.w3.org/2000/svg" version="1.1" xmlns:xlink="http://www.w3.org/1999/xlink" width="18" height="18" x="0" y="0" viewBox="0 0 24 24" style="enable-background:new 0 0 512 512" xml:space="preserve" class=""><g><path d="M19 3H5a5 5 0 0 0-5 5v8a5 5 0 0 0 5 5h14a5 5 0 0 0 5-5V8a5 5 0 0 0-5-5ZM6.802 17.359c-1.909-.449-3.404-2.058-3.729-3.992A5.005 5.005 0 0 1 7 7.6v4.485a2 2 0 0 0 .586 1.414l3.169 3.169a5.003 5.003 0 0 1-3.952.691Zm5.366-2.105-2.876-2.876a1 1 0 0 1-.293-.707v-4.07a5 5 0 0 1 4 4.899 4.964 4.964 0 0 1-.832 2.754ZM20 17h-3a1 1 0 0 1 0-2h3a1 1 0 0 1 0 2Zm0-4h-3a1 1 0 0 1 0-2h3a1 1 0 0 1 0 2Zm0-4h-3a1 1 0 0 1 0-2h3a1 1 0 0 1 0 2Z" fill="#454545" opacity="1" data-original="#000000"></path></g></svg>