<svg xmlns="http://www.w3.org/2000/svg" version="1.1" xmlns:xlink="http://www.w3.org/1999/xlink" width="18" height="18" x="0" y="0" viewBox="0 0 24 24" style="enable-background:new 0 0 512 512" xml:space="preserve" class=""><g><path d="M14 7V.46a6.977 6.977 0 0 1 2.465 1.59l3.484 3.486A6.954 6.954 0 0 1 21.54 8H15a1 1 0 0 1-1-1zm8 3.485V19a5.006 5.006 0 0 1-5 5H7a5.006 5.006 0 0 1-5-5V5a5.006 5.006 0 0 1 5-5h4.515c.163 0 .324.013.485.024V7a3 3 0 0 0 3 3h6.976c.011.161.024.322.024.485zM14 19a1 1 0 0 0-1-1H8a1 1 0 0 0 0 2h5a1 1 0 0 0 1-1zm3-4a1 1 0 0 0-1-1H8a1 1 0 0 0 0 2h8a1 1 0 0 0 1-1z" fill="#ffffff" opacity="1" data-original="#000000"></path></g></svg>