<svg xmlns="http://www.w3.org/2000/svg" version="1.1" xmlns:xlink="http://www.w3.org/1999/xlink" width="18" height="18" x="0" y="0" viewBox="0 0 24 24" style="enable-background:new 0 0 512 512" xml:space="preserve" class=""><g><path d="M12 12c-3.309 0-6-2.691-6-6s2.691-6 6-6 6 2.691 6 6-2.691 6-6 6Zm0 8c-2.206 0-4 1.794-4 4h8c0-2.206-1.794-4-4-4Zm8.497-3.011A5.523 5.523 0 0 0 15.208 13H8.791a5.525 5.525 0 0 0-5.289 3.989L1.499 24h4.5c0-3.309 2.691-6 6-6s6 2.691 6 6h4.5l-2.003-7.011Z" fill="#ffffff" opacity="1" data-original="#000000" class=""></path></g></svg>