<svg xmlns="http://www.w3.org/2000/svg" version="1.1" xmlns:xlink="http://www.w3.org/1999/xlink" width="18" height="18" x="0" y="0" viewBox="0 0 24 24" style="enable-background:new 0 0 512 512" xml:space="preserve"><g><path d="M20.943 4.121a3.003 3.003 0 0 0-2.454-2.574 38.839 38.839 0 0 0-12.979 0 3.002 3.002 0 0 0-2.454 2.575 64.688 64.688 0 0 0-.073 15.447c.077.668.437 1.283.984 1.684.401.295.799.591 1.193.885.777.581 1.82.648 2.654.172.346-.197.697-.402 1.052-.614a.473.473 0 0 1 .512.015l1.246.862c.416.287.893.43 1.368.43s.952-.143 1.366-.429l1.249-.863a.473.473 0 0 1 .51-.015c.358.213.712.419 1.06.617a2.428 2.428 0 0 0 2.651-.171c.397-.296.798-.593 1.2-.889.55-.402.91-1.017.987-1.687a64.724 64.724 0 0 0-.073-15.445ZM12.159 16.18H8.5a1 1 0 1 1 0-2h3.659a1 1 0 1 1 0 2Zm3.341-4.181h-7a1 1 0 1 1 0-2h7a1 1 0 1 1 0 2Zm0-4.181h-7a1 1 0 1 1 0-2h7a1 1 0 1 1 0 2Z" fill="#ffffff" opacity="1" data-original="#000000"></path></g></svg>