<svg xmlns="http://www.w3.org/2000/svg" version="1.1" xmlns:xlink="http://www.w3.org/1999/xlink" width="18" height="18" x="0" y="0" viewBox="0 0 24 24" style="enable-background:new 0 0 512 512" xml:space="preserve" class=""><g><path d="M8 0H4.5A4.5 4.5 0 0 0 0 4.5V8a2 2 0 0 0 2 2h6a2 2 0 0 0 2-2V2a2 2 0 0 0-2-2Zm6 10h6a2 2 0 0 0 2-2V4.5A4.5 4.5 0 0 0 17.5 0H14a2 2 0 0 0-2 2v6a2 2 0 0 0 2 2Zm-6 2H2a2 2 0 0 0-2 2v3.5A4.5 4.5 0 0 0 4.5 22H8a2 2 0 0 0 2-2v-6a2 2 0 0 0-2-2Zm15.707 10.293-2.54-2.54A4.969 4.969 0 0 0 22 17c0-2.757-2.243-5-5-5s-5 2.243-5 5 2.243 5 5 5a4.969 4.969 0 0 0 2.753-.833l2.54 2.54a.997.997 0 0 0 1.414 0 .999.999 0 0 0 0-1.414Z" fill="#ffffff" opacity="1" data-original="#000000" class=""></path></g></svg>