<svg xmlns="http://www.w3.org/2000/svg" version="1.1" xmlns:xlink="http://www.w3.org/1999/xlink" width="15" height="15" x="0" y="0" viewBox="0 0 286.614 286.614" style="enable-background:new 0 0 512 512" xml:space="preserve" class=""><g><path d="M270.126 105.055H146.394l23.487-18.548c7.147-5.643 8.364-16.011 2.721-23.156-5.643-7.146-16.012-8.365-23.156-2.721 0 0-40.819 33.689-60.28 47.603-13.14 9.395-25.402 20.959-25.402 38.096v39.537c0 24.077 19.588 43.666 43.665 43.666h77.789c9.106 0 16.487-7.382 16.487-16.487 0-5.927-3.138-11.108-7.833-14.014h5.359c9.105 0 16.487-7.382 16.487-16.487 0-5.927-3.138-11.108-7.833-14.014h3.71c9.105 0 16.487-7.382 16.487-16.487 0-5.927-3.138-11.108-7.832-14.014h49.874c9.105 0 16.487-7.382 16.487-16.487s-7.379-16.487-16.485-16.487zM37.885 110.781H9.282A9.282 9.282 0 0 0 0 120.063V220.25a9.282 9.282 0 0 0 9.282 9.282h28.603a9.282 9.282 0 0 0 9.282-9.282V120.063a9.282 9.282 0 0 0-9.282-9.282z" fill="#ffffff" opacity="1" data-original="#000000"></path></g></svg>