<svg xmlns="http://www.w3.org/2000/svg" version="1.1" xmlns:xlink="http://www.w3.org/1999/xlink" width="18" height="18" x="0" y="0" viewBox="0 0 24 24" style="enable-background:new 0 0 512 512" xml:space="preserve"><g><path d="M22.994 11.954c.006-1.206-.452-2.662-2.571-3.05a9.385 9.385 0 0 0-.364-.633c1.068-1.479.986-2.851-.248-4.085-1.235-1.236-2.607-1.317-4.087-.245a8.374 8.374 0 0 0-.627-.36c-.382-2.112-1.824-2.58-3.027-2.58-1.687 0-2.771.891-3.086 2.624-.208.109-.418.23-.629.362-1.473-1.064-2.846-.973-4.093.272C3.019 5.503 2.929 6.877 3.99 8.35a9.878 9.878 0 0 0-.366.633c-1.729.316-2.609 1.345-2.618 3.063-.006 1.206.452 2.662 2.571 3.05.11.21.231.421.365.633-1.069 1.479-.987 2.851.247 4.085 1.235 1.236 2.608 1.317 4.087.245.209.132.418.252.627.36.382 2.112 1.824 2.58 3.027 2.58 1.785 0 2.771-.891 3.086-2.624.208-.109.418-.23.629-.362 2.351 1.769 4.092-.272 4.093-.272 1.214-1.149 1.334-2.618.272-4.092.133-.212.255-.423.366-.632 1.729-.316 2.609-1.345 2.618-3.063Zm-8.532 2.508c-.817.818-1.593 1.274-2.67 1.21-1.016-.061-1.773-.728-2.254-1.21-1.634-1.633-1.634-3.291 0-4.925.882-.884 1.754-1.286 2.67-1.209 1.015.078 1.773.728 2.254 1.21 1.633 1.633 1.634 3.291 0 4.925Z" fill="#ffffff" opacity="1" data-original="#000000"></path></g></svg>