<svg xmlns="http://www.w3.org/2000/svg" version="1.1" xmlns:xlink="http://www.w3.org/1999/xlink" width="40" height="40" x="0" y="0" viewBox="0 0 50 50" style="enable-background:new 0 0 512 512" xml:space="preserve" class=""><g><path d="M46.3 22.1c-5.7-1.5-9.2-1.3-10-1.6-.4-.1 0 0-6.1-3.7-.6-.4-1.4-.6-2.1-.7-6.9-.8-15-.6-20.5 3.7-.3.2-.5.4-.8.4l-3.2 1c-.6.2-1.1.6-1.3 1.1-1.1 1.9-1.5 4.3-.9 6.5.2.9.9 1.5 1.7 1.7l.8.2c0-.3-.1-.5-.1-.8 0-3.6 2.9-6.5 6.5-6.5s6.5 2.9 6.5 6.5c0 .5-.1 1-.2 1.4h18.3c-.1-.5-.2-.9-.2-1.4 0-3.6 2.9-6.5 6.5-6.5s6.5 2.9 6.5 6.5c0 .4 0 .8-.1 1.2.8-.4 1.3-1.3 1.3-2.2v-3.1c.1-1.8-1-3.3-2.6-3.7zM16.9 22c-.3 0-.6-.1-.8-.4l-2.4-2.9c2.2-.7 4.8-1.1 7.7-1.1l1.2 4.4zm16.4-.1c-.2.1-.3.1-.5.1h-8.1l-1.2-4.3 4.2.3c.4 0 .9.2 1.3.4l4.9 3z" fill="#454545" opacity="1" data-original="#000000" class=""></path><circle cx="10.3" cy="29.8" r="4.5" fill="#454545" opacity="1" data-original="#000000" class=""></circle><circle cx="41.3" cy="29.8" r="4.5" fill="#454545" opacity="1" data-original="#000000" class=""></circle></g></svg>