<svg xmlns="http://www.w3.org/2000/svg" version="1.1" xmlns:xlink="http://www.w3.org/1999/xlink" width="15" height="15" x="0" y="0" viewBox="0 0 24 24" style="enable-background:new 0 0 512 512" xml:space="preserve" class=""><g><path d="M24 3.5c0 .83-.67 1.5-1.5 1.5h-21C.67 5 0 4.33 0 3.5S.67 2 1.5 2h21c.83 0 1.5.67 1.5 1.5ZM6.5 20h-5c-.83 0-1.5.67-1.5 1.5S.67 23 1.5 23h5c.83 0 1.5-.67 1.5-1.5S7.33 20 6.5 20Zm8-9h-13c-.83 0-1.5.67-1.5 1.5S.67 14 1.5 14h13c.83 0 1.5-.67 1.5-1.5s-.67-1.5-1.5-1.5Z" fill="#eb2427" opacity="1" data-original="#000000" class=""></path></g></svg>