<?xml version="1.0" encoding="utf-8"?>
<!-- Generator: Adobe Illustrator 27.5.0, SVG Export Plug-In . SVG Version: 6.00 Build 0)  -->
<svg version="1.1" id="Layer_1" xmlns="http://www.w3.org/2000/svg" xmlns:xlink="http://www.w3.org/1999/xlink" x="0px" y="0px"
	 viewBox="0 0 2090 2090" style="enable-background:new 0 0 2090 2090;" xml:space="preserve" width="1000" height="667">
<g>
	<path style="fill:#FEFEFE;" d="M0,0h2090.772v2090.772H0V0z"/>
	<path style="fill:#6B7A83;" d="M160.728,1901.768l1.085,8.792c7.533,1.272,62.084,2.82,67.725-0.713
		c21.545-2.068,44.596-0.627,66.319-0.668l132.903,0.319c11.726,0.084,53.282,2.483,61.029-0.698
		c2.738,2.03,7.003,1.376,10.274,1.397l974.843,0.672c42.597,0.035,85.499-2.074,128.047-0.933
		c60.506,0.602,121.091-0.664,181.609-0.796c24.201-0.053,54.285-2.127,77.739,0.406c12.087,3.873,52.102,1.109,66.717,0.382
		c20.343-0.355,40.687-0.434,61.033-0.237c11.479,0.022,23.392,0.598,34.828-0.457c2.675,0.012,6.807-0.331,9.08,1.243
		c2.246,1.554,2.57,2.71,3.112,5.162l-1.785,1.913c-9.304,3.277-141.029-0.008-162.749,0.145L533.41,1918.22l-326.896,0.024
		l-97.863,0.167c-14.559,0.018-29.338,0.7-43.863,0.127c-2.045-0.082-4.542-0.247-6.398-1.196c-2.294-1.172-2.596-2.219-3.173-4.461
		l1.308-1.613c10.007-4.68,43.329-2.06,56.456-1.962c15.299,0.229,30.896,1.078,46.164,0.202
		C160.956,1907.319,160.626,1904.471,160.728,1901.768z"/>
	<path style="fill:#375963;" d="M123.092,1262.919c26.856-9.168,66.884-20.416,94.022-6.783c9.353,4.7,14.18,12.988,17.1,22.725
		c2.424,8.083,3.92,17.704,3.504,26.139c0.586,19.425-4.357,36.664-9.762,55.122c-3.185,2.803-4.376,7.687-5.929,11.585
		c-11.013,27.633-21.028,38.128-48.2,50.605c-1.57-0.196-0.942-0.243-2.395,0.022c-20.651,3.781-37.638,2.899-57.112-4.661
		c-2.021-0.995-4.033-2.009-6.036-3.042c-28.753-14.866-50.252-38.104-60.099-69.189c-3.077-9.006-4.24-19.331-0.592-28.33
		C57.468,1292.745,99.987,1272.48,123.092,1262.919z"/>
	<path style="fill:#ECECEC;" d="M1921.357,1417.47c18.251,7.532,32.295,6.476,51.095,2.325c5.368,18.325,3.25,40.784,3.302,59.803
		c0.063,29.784-0.063,59.567-0.376,89.348c0.512,113.251,0.177,226.5-1.004,339.746c16.316-0.041,34.404-1.615,50.505,0.539
		c-11.436,1.056-23.35,0.48-34.828,0.457c-20.346-0.197-40.69-0.118-61.033,0.237c5.262-27.601,4.618-56.089,4.933-84.074
		l0.77-87.218c0.118-61.249-8.1-113.708-53.113-158.907c-1.862-25.351-4.27-50.649-7.224-75.895
		c-1.186-10.139-6.015-32.768-5.008-41.903C1887.047,1447.425,1902.674,1430.779,1921.357,1417.47z"/>
	<path style="fill:#ECECEC;" d="M114.319,1417.672c19.474,7.561,36.461,8.443,57.112,4.661c1.452-0.266,0.825-0.219,2.395-0.022
		c17.231,14.503,33.53,29.996,50.511,44.766c1.246,5.013-9.1,99.42-10.241,113.083c-16.502,20.544-30.084,40.944-38.318,66.233
		c-16.272,49.98-17.56,152.967-16.905,207.717c0.183,15.291-0.302,31.476,1.658,46.624c0.045,0.347,0.131,0.688,0.197,1.033
		c-0.102,2.703,0.229,5.552-1.582,7.74c-15.268,0.876-30.865,0.026-46.164-0.202c0.727-55.994,0.214-112.083,0.353-168.087
		c0.074-29.638,1.092-59.262,0.862-88.901c-0.395-44.924-0.514-89.849-0.356-134.773
		C113.745,1484.259,113.086,1450.945,114.319,1417.672z"/>
	<path style="fill:#ECECEC;" d="M123.092,1262.919c-1.48-40.748-7.544-81.179-9.531-121.937
		c-1.021-20.944-0.242-42.058,0.207-63.011c4.699-219.235,83.179-437.3,231.557-600.517c5.219-5.733,10.508-11.401,15.869-17.002
		c5.36-5.603,10.789-11.138,16.285-16.606c5.496-5.466,11.06-10.864,16.691-16.193c5.631-5.33,11.327-10.589,17.088-15.777
		c5.762-5.189,11.587-10.305,17.475-15.348c5.889-5.045,11.838-10.015,17.849-14.911c6.011-4.896,12.082-9.717,18.213-14.462
		c6.131-4.745,12.32-9.414,18.568-14.007c6.247-4.593,12.549-9.107,18.907-13.543c6.359-4.435,12.772-8.79,19.238-13.067
		c6.467-4.277,12.986-8.473,19.556-12.59c6.572-4.115,13.193-8.148,19.862-12.099c6.671-3.95,13.39-7.817,20.156-11.601
		c6.766-3.785,13.579-7.486,20.438-11.101c6.859-3.615,13.761-7.145,20.706-10.589c6.946-3.445,13.934-6.803,20.963-10.074
		s14.098-6.454,21.206-9.549c7.108-3.097,14.254-6.104,21.437-9.023c7.183-2.918,14.401-5.748,21.653-8.488
		c7.254-2.739,14.54-5.387,21.857-7.946c7.319-2.559,14.669-5.027,22.049-7.404c7.379-2.377,14.786-4.661,22.223-6.854
		c7.437-2.193,14.9-4.294,22.388-6.302c7.489-2.008,15.002-3.923,22.537-5.744c7.536-1.822,15.093-3.55,22.672-5.184
		c7.579-1.634,15.177-3.174,22.794-4.62c7.617-1.446,15.251-2.797,22.9-4.054c7.651-1.257,15.316-2.418,22.994-3.484
		c7.68-1.066,15.371-2.037,23.074-2.913c7.704-0.876,15.417-1.656,23.139-2.34c7.723-0.684,15.453-1.273,23.19-1.766
		c7.738-0.493,15.481-0.89,23.227-1.19c-1.443,37.364-0.88,75.069,0.061,112.456c-14.288,7.736-42.071,25.077-50.221,39.457
		c-21.498,1.37-43.492,0.335-65.051,0.192l-75.092,0.135c-23.205-0.186-49.75-3.197-72.223,2.981
		c-14.972,4.116-28.487,13.186-38.643,24.854c-0.856,0.975-1.688,1.97-2.495,2.985c-0.806,1.015-1.586,2.05-2.342,3.103
		c-0.755,1.055-1.484,2.128-2.185,3.218c-0.702,1.09-1.377,2.198-2.023,3.322c-0.647,1.124-1.265,2.264-1.856,3.418
		c-0.589,1.154-1.15,2.323-1.682,3.506c-0.532,1.183-1.034,2.378-1.507,3.585c-0.474,1.207-0.916,2.426-1.327,3.657
		c-0.412,1.229-0.794,2.468-1.143,3.716c-0.351,1.25-0.67,2.507-0.958,3.771c-0.289,1.265-0.545,2.535-0.77,3.812
		s-0.417,2.559-0.578,3.847c-0.162,1.286-0.291,2.576-0.388,3.869c-0.097,1.293-0.161,2.588-0.194,3.885
		c-0.033,1.296-0.033,2.592,0,3.888c0.031,1.297,0.095,2.592,0.192,3.885c1.601,19.24,12.52,40.064,27.409,52.355
		c22.082,18.229,44.474,16.579,71.254,16.253c10.152-0.124,20.671,0.713,30.772-0.186c1.96-0.173,3.271-0.6,4.919-1.662
		c4.373,14.197,9.572,27.513,15.995,40.933c-6.552,44.447,3.055,93.305,14.131,136.486c-13.902,5.3-23.056,13.574-29.185,27.398
		c-8.963,20.21-2.544,34.245,0.988,54.06c-2.491,0.684-4.784,0.737-7.342,0.79c-62.817,3.404-124.975,9.408-187.449,16.691
		c-25.455,2.967-67.454,5.198-90.034,15.785c-23.96,11.232-43.896,32.926-61.325,52.375
		c-93.542,104.398-166.504,276.899-201.729,412.172c-7.138,27.411-14.59,54.852-20.561,82.543
		c-2.899,13.451-6.76,44.899-11.287,55.552c-3.802-3.275-7.214-6.991-10.705-10.591c5.405-18.458,10.348-35.696,9.762-55.122
		c0.417-8.434-1.08-18.055-3.504-26.139c-2.92-9.737-7.747-18.025-17.1-22.725C189.975,1242.503,149.947,1253.751,123.092,1262.919z
		"/>
	<path style="fill:#DDDFDF;" d="M414.857,471.087l116.199,0.347c18.639-0.043,39.569-2.062,57.984,0.461
		c6.83,0.937,14.205,3.847,19.099,8.824c8.488,8.629,9.421,22.831,9.435,34.316c0.029,22.768-0.578,45.534-0.766,68.299
		c-0.127,15.364,1.556,32.817-1.599,47.778c-1.403,6.65-3.977,12.6-8.953,17.339c-7.94,7.559-17.59,9.868-28.18,9.78
		c-37.728-1.307-75.997-1.137-113.757-0.71c-18.964,0.216-41.093,2.462-59.673,0.233c-7.346-0.882-14.456-3.542-19.985-8.567
		c-7.477-6.793-9.055-13.672-9.711-23.452c-1.354-20.224-0.172-41.162-0.329-61.457c-0.157-20.336-2.44-44.404,0.561-64.412
		c1.035-6.897,2.581-12.775,7.426-17.972C391.256,472.621,402.986,471.441,414.857,471.087z"/>
	<path style="fill:#ECECEC;" d="M417.315,479.228c53.033-0.794,106.401-0.594,159.428,0.329c9.078,0.157,19.295-0.368,25.855,7.071
		c3.935,4.461,4.79,12.33,5.368,18.088c1.584,15.791,0.192,32.46,0.11,48.363c-0.141,27.049,0.51,54.262-0.864,81.271
		c-1.558,2.638-3.54,5.184-5.654,7.401c-7.022,7.363-15.27,8.426-24.869,8.531c-39.049-0.611-78.167,0.047-117.222,0.157
		c-18.076,0.053-38.424,1.979-56.143-1.084c-4.978-0.862-9.268-3.01-12.947-6.495c-5.915-5.607-7.332-11.942-7.565-19.834
		c-0.719-24.303,0.323-48.782,0.288-73.106c-0.022-15.738-2.215-33.338,0.223-48.77c0.849-5.388,2.94-10.515,6.842-14.417
		C397.733,479.173,407.413,479.467,417.315,479.228z"/>
	<path style="fill:#ECECEC;" d="M1073.897,171.779c42.7-0.923,85.009,4.404,127.045,11.529
		c180.495,30.596,358.39,114.219,491.072,241.47c39.584,37.965,77.985,77.812,111.099,121.657
		c13.966,18.494,26.241,38.326,38.457,57.996c9.745,15.691,20.201,31.015,29.089,47.222c29.136,53.125,51.94,112.165,70.312,169.749
		c6.442,20.187,13.063,40.554,17.823,61.212c14.568,63.244,22.31,138.51,23.513,203.103c0.411,45.198-1.599,90.289-6.029,135.271
		c-1.225,13.478-1.458,28.223-4.347,41.395c24.222,10.952,62.123,27.993,71.554,55.138c3.165,9.088,2.246,17.774,1.205,27.082
		c-10.16,30.598-26.939,53.815-56.185,68.624c-5.194,2.628-10.568,4.639-16.052,6.568c-18.801,4.151-32.844,5.207-51.095-2.325
		c-18.682,13.308-34.31,29.955-51.981,44.459c-4.475-9.917-10.893-65.392-14.542-81.362c-5.486-23.125-9.457-46.536-14.611-69.724
		c-8.155-36.711-17.32-73.657-26.927-110.017c-6.513-24.656-14.658-48.847-22.592-73.071
		c-32.711-99.883-74.122-200.228-137.119-285.156l-5.884-7.201c-6.183-7.401-12.668-14.526-19.456-21.377
		c-6.787-6.851-13.852-13.402-21.196-19.654c-7.753-5.71-15.587-11.307-23.501-16.792c-27.439-15.097-55.651-21.053-86.12-26.711
		l-7.703-1.123c-24.101-3.949-48.619-6.133-72.924-8.453c-50.522-4.813-101.147-7.985-151.875-9.517
		c-8.149,19.189-15.383,31.917-35.086,41.274l-5.693,3.61l-3.042,16.25c-3.992,7.397-4.629,17.998-7.052,26.177
		c-5.966,20.146-17.573,40.85-29.816,57.811c-5.811,6.146-15.415,13.884-19.05,21.396c-1.431,0.2-40.051,24.477-45.013,27.002
		c-11.197,5.699-23.501,11.134-35.78,13.992c-39.037,9.088-90.02-1.497-124.656-20.62c-9.541-5.268-28.268-20.628-37.293-22.968
		c-0.41-0.106-0.837-0.133-1.254-0.2c-4.318-5.23-8.691-10.412-13.12-15.546c-6.021-8.053-12.004-15.971-17.024-24.707
		c-12.894-19.403-16.167-41.632-20.753-64.036c-0.796-3.832-1.188-7.659-1.595-11.55c-28.36-7.808-32.278-20.677-49.245-41.26
		c-2.516-3.052-4.751-2.566-8.41-2.805c2.558-0.053,4.851-0.106,7.342-0.79c-3.532-19.815-9.952-33.851-0.988-54.06
		c6.129-13.825,15.283-22.098,29.185-27.398c-11.076-43.182-20.683-92.039-14.131-136.486
		c-6.423-13.421-11.622-26.737-15.995-40.933c-1.648,1.062-2.959,1.489-4.919,1.662c-10.101,0.898-20.62,0.061-30.772,0.186
		c-26.78,0.327-49.172,1.977-71.254-16.253c-14.889-12.291-25.808-33.115-27.409-52.355c-0.097-1.293-0.161-2.588-0.192-3.885
		c-0.033-1.296-0.033-2.592,0-3.888c0.033-1.297,0.097-2.592,0.194-3.885c0.097-1.293,0.226-2.583,0.388-3.869
		c0.161-1.288,0.353-2.57,0.578-3.847s0.481-2.547,0.77-3.812c0.287-1.264,0.606-2.522,0.958-3.771
		c0.35-1.248,0.731-2.487,1.143-3.716c0.411-1.231,0.853-2.449,1.327-3.657c0.472-1.207,0.974-2.402,1.507-3.585
		c0.532-1.183,1.093-2.351,1.682-3.506c0.591-1.154,1.209-2.294,1.856-3.418c0.647-1.124,1.321-2.232,2.023-3.322
		c0.701-1.09,1.429-2.163,2.185-3.218c0.755-1.054,1.536-2.088,2.342-3.103c0.807-1.016,1.639-2.01,2.495-2.985
		c10.156-11.669,23.67-20.738,38.643-24.854c22.474-6.178,49.019-3.167,72.223-2.981l75.092-0.135
		c21.559,0.143,43.553,1.178,65.051-0.192c8.151-14.38,35.933-31.721,50.221-39.457c-0.941-37.387-1.505-75.092-0.061-112.456
		C1026.312,171.635,1050.117,171.457,1073.897,171.779z"/>
	<path style="fill:#FE4F5A;" d="M1235.796,666.781l2.654-10.268c7.101-0.141,12.636,0.484,18.019,5.515
		c3.594,3.359,6.348,8.063,8.665,12.369c7.353,19.846,5.544,37.324-0.208,57.376c-8.149,19.189-15.383,31.917-35.086,41.274
		l-5.693,3.61c-0.896-15.883,2.897-39.406,4.263-56.069c-0.408-7.079,6.031-15.748,3.293-22.515
		c-0.588-1.456-2.066-1.584-3.404-2.146C1233.401,688.244,1234.205,675.805,1235.796,666.781z"/>
	<path style="fill:#FE9D76;" d="M1235.796,666.781l2.654-10.268c7.101-0.141,12.636,0.484,18.019,5.515
		c3.594,3.359,6.348,8.063,8.665,12.369c7.353,19.846,5.544,37.324-0.208,57.376c-8.149,19.189-15.383,31.917-35.086,41.274
		c0.99-5.166,2.344-10.013,3.93-15.017c5.811-12.33,13.504-23.742,18.988-36.207c4.306-9.792,6.23-20.373,10.472-30.096
		c0.998-2.289,1.625-4.01,1.946-6.487c-2.648-5.023-5.088-9.545-8.857-13.841C1249.508,669.406,1242.791,667.979,1235.796,666.781z"
		/>
	<path style="fill:#DDDFDF;" d="M1489.724,749.742c-0.037-20.828-2.538-74.241,1.607-90.732c1.829-7.283,5.217-13.38,10.589-18.617
		c4.404-4.294,9.658-7.881,15.76-9.157c17.955-3.755,65.533-1.707,86.287-1.705c32.536,0.004,65.181-1.386,97.711-0.288
		c13.935,0.47,23.917,3.839,33.793,14.378c3.865,4.122,7.751,9.748,8.843,15.399c3.318,17.186,1.1,47.326,1.019,65.682
		c-0.116,25.596,1.015,51.638-0.335,77.183c-0.662,12.51-4.617,22.404-14.129,31.094c-19.352,17.678-53.864,5.062-77.285,9.621
		l-5.884-7.201c18.161-10.77,56.663,6.003,75.245-8.439c8.014-6.229,11.291-14.721,12.367-24.583
		c1.239-11.364,0.116-23.307,0.423-34.761c0.687-21.635,1.016-43.275,0.986-64.92c0.055-11.608,0.807-23.779-0.563-35.302
		c-0.688-5.801-2.246-12.157-6.117-16.704c-5.151-6.052-11.742-9.998-19.693-10.593c-12.371-0.925-25.144-0.32-37.571-0.29
		l-67.95,0.069c-24.152-0.09-60.314-2.903-82.845,0.233c-5.492,0.766-10.987,4.065-15.017,7.757
		c-3.739,3.424-5.454,7.648-6.46,12.543c-2.818,13.678-1.478,29.338-1.684,43.373c-0.229,15.695-1.054,31.386-1.393,47.083
		L1489.724,749.742z"/>
	<path style="fill:#DDDFDF;" d="M1002.529,171.622c23.783,0.013,47.587-0.165,71.368,0.157c5.746,0.239,11.45,0.412,17.202,0.35
		l0.343,112.925c16.275,6.924,34.463,24.189,44.841,38.451l-183.915,0.031c8.151-14.38,35.933-31.721,50.221-39.457
		C1001.649,246.691,1001.086,208.985,1002.529,171.622z"/>
	<path style="fill:#375963;" d="M1854.548,1289.304c0.604-2.736,1.239-5.472,2.097-8.141c3.573-11.105,9.325-20.652,20.158-25.941
		c25.851-12.62,69.526-1.703,95.128,7.161c24.222,10.952,62.123,27.993,71.554,55.138c3.165,9.088,2.246,17.774,1.205,27.082
		c-10.16,30.598-26.939,53.815-56.185,68.624c-5.194,2.628-10.568,4.639-16.052,6.568c-18.801,4.151-32.844,5.207-51.095-2.325
		c-18.682,13.308-34.31,29.955-51.981,44.459c-4.475-9.917-10.893-65.392-14.542-81.362c4.421-3.416,8.359-7.275,12.363-11.158
		C1855.969,1343.595,1849.623,1317.401,1854.548,1289.304z"/>
	<path style="fill:#192E35;" d="M1854.548,1289.304c3.714,1.46,4.817,2.446,6.45,6.115c15.076,33.869,30.038,82.085,67.826,97.566
		c18.841,7.72,40.788,3.501,58.776-4.541c16.569-7.406,28.577-16.967,40.335-30.604c3.253-3.771,6.844-9.253,10.593-12.324
		c2.009-1.644,3.732-1.056,6.162-0.913c-10.16,30.598-26.939,53.815-56.185,68.624c-5.194,2.628-10.568,4.639-16.052,6.568
		c-18.801,4.151-32.844,5.207-51.095-2.325c-18.682,13.308-34.31,29.955-51.981,44.459c-4.475-9.917-10.893-65.392-14.542-81.362
		c4.421-3.416,8.359-7.275,12.363-11.158C1855.969,1343.595,1849.623,1317.401,1854.548,1289.304z"/>
	<path style="fill:#ECECEC;" d="M1497.428,750.865c0.339-15.697,1.164-31.388,1.393-47.083c0.206-14.035-1.133-29.695,1.684-43.373
		c1.007-4.894,2.722-9.119,6.46-12.543c4.03-3.692,9.525-6.991,15.017-7.757c22.531-3.136,58.693-0.323,82.845-0.233l67.95-0.069
		c12.426-0.031,25.199-0.635,37.571,0.29c7.951,0.594,14.542,4.541,19.693,10.593c3.871,4.547,5.429,10.903,6.117,16.704
		c1.37,11.524,0.619,23.695,0.563,35.302c0.03,21.646-0.299,43.285-0.986,64.92c-0.306,11.454,0.817,23.397-0.423,34.761
		c-1.076,9.862-4.353,18.354-12.367,24.583c-18.582,14.441-57.084-2.332-75.245,8.439c-6.183-7.401-12.668-14.526-19.456-21.377
		c-6.787-6.851-13.852-13.402-21.196-19.654c-7.753-5.71-15.587-11.307-23.501-16.792
		C1556.109,762.479,1527.897,756.523,1497.428,750.865z"/>
	<path style="fill:#DDDFDF;" d="M1583.548,777.576l1.474-1.727c-0.859-5.701-11.387-12.436-14.942-17.565
		c-1.923-2.775-2.75-7.026-3.618-10.266c-4.712-17.627-1.854-35.519,8.906-50.375c8.285-11.436,20.648-19.168,34.718-20.951
		c0.934-0.121,1.87-0.219,2.81-0.292c0.938-0.072,1.878-0.12,2.82-0.145c0.941-0.024,1.882-0.024,2.824,0
		c0.942,0.025,1.882,0.074,2.82,0.147c0.939,0.072,1.876,0.169,2.81,0.29c0.934,0.121,1.863,0.267,2.789,0.437
		c0.927,0.169,1.849,0.361,2.765,0.578c0.916,0.218,1.826,0.459,2.73,0.723c0.904,0.263,1.801,0.549,2.691,0.86
		c0.889,0.31,1.769,0.643,2.64,0.998c0.873,0.357,1.735,0.735,2.587,1.135c0.852,0.4,1.693,0.822,2.524,1.266
		c0.832,0.444,1.651,0.908,2.456,1.393c0.807,0.486,1.601,0.992,2.381,1.519c0.78,0.528,1.546,1.075,2.299,1.642
		c0.753,0.566,1.49,1.152,2.211,1.756c11.795,9.892,18.307,23.919,19.334,39.124c1.17,17.312-3.969,33.895-15.424,47.047
		c-9.133,10.484-24.626,16.824-38.391,17.367c-4.159,0.163-7.226-0.686-10.711,1.831
		C1599.295,788.657,1591.462,783.06,1583.548,777.576z"/>
	<path style="fill:#FEFEFE;" d="M952.369,323.535l183.915-0.031c50.485,0.805,100.953-0.067,151.434-0.002
		c18.227,0.025,48.8-2.213,65.2,1.909c13.721,3.449,28.346,13.141,38.108,23.233c14.75,15.248,22.043,32.807,21.439,54.135
		c-0.586,20.616-9.686,42.071-24.787,56.236c-7.642,7.169-16.698,12.737-26.751,15.789c-26.49,8.042-91.994,4.945-121.428,4.333
		c-8.459-0.176-21.402-2.24-28.895,1.776c-2.544-20.195-9.941-38.13-21.755-54.67c-81.687-114.374-212.123-10.184-319.645-27.666
		c3.724,12.342,8.688,24.454,13.206,36.535c-11.528-3.212-21.833-7.675-32.487-13.112c2.869,7.469,6.301,14.415,11.162,20.789
		c-17.016-5.695-33.816-11.972-50.399-18.829c-0.927,18.055,1.329,34.475,5.772,51.963c-1.648,1.062-2.959,1.489-4.919,1.662
		c-10.101,0.898-20.62,0.061-30.772,0.186c-26.78,0.327-49.172,1.977-71.254-16.253c-14.889-12.291-25.808-33.115-27.409-52.355
		c-0.097-1.293-0.161-2.588-0.192-3.885c-0.033-1.296-0.033-2.592,0-3.888c0.033-1.297,0.097-2.592,0.194-3.885
		c0.097-1.293,0.226-2.583,0.388-3.869c0.161-1.288,0.353-2.57,0.578-3.847s0.481-2.547,0.77-3.812
		c0.287-1.264,0.606-2.522,0.958-3.771c0.35-1.248,0.731-2.487,1.143-3.716c0.411-1.231,0.853-2.449,1.327-3.657
		c0.472-1.207,0.974-2.402,1.507-3.585c0.532-1.183,1.093-2.351,1.682-3.506c0.591-1.154,1.209-2.294,1.856-3.418
		c0.647-1.124,1.321-2.232,2.023-3.322c0.701-1.09,1.429-2.163,2.185-3.218c0.755-1.054,1.536-2.088,2.342-3.103
		c0.807-1.016,1.639-2.01,2.495-2.985c10.156-11.669,23.67-20.738,38.643-24.854c22.474-6.178,49.019-3.167,72.223-2.981
		l75.092-0.135C908.878,323.87,930.871,324.905,952.369,323.535z"/>
	<path style="fill:#FE9D76;" d="M869.202,398.578c107.522,17.482,237.958-86.708,319.645,27.666
		c11.814,16.54,19.211,34.475,21.755,54.67c0.837,7.463,1.415,14.827,1.658,22.335c11.93,3.982,18.915,11.042,24.516,22.41
		c17.304,35.133,12.136,93.932,1.674,130.853l-2.654,10.268c-1.591,9.025-2.395,21.463-7.495,29.146
		c1.338,0.561,2.816,0.69,3.404,2.146c2.738,6.766-3.702,15.436-3.293,22.515c-1.366,16.663-5.16,40.186-4.263,56.069l-3.042,16.25
		c-3.992,7.397-4.629,17.998-7.052,26.177c-5.966,20.146-17.573,40.85-29.816,57.811c-5.811,6.146-15.415,13.884-19.05,21.396
		c-1.431,0.2-40.051,24.477-45.013,27.002c-11.197,5.699-23.501,11.134-35.78,13.992c-39.037,9.088-90.02-1.497-124.656-20.62
		c-9.541-5.268-28.268-20.628-37.293-22.968c-0.41-0.106-0.837-0.133-1.254-0.2c-4.318-5.23-8.691-10.412-13.12-15.546
		c-6.021-8.053-12.004-15.971-17.024-24.707c-12.894-19.403-16.167-41.632-20.753-64.036c-0.796-3.832-1.188-7.659-1.595-11.55
		c-28.36-7.808-32.278-20.677-49.245-41.26c-2.516-3.052-4.751-2.566-8.41-2.805c2.558-0.053,4.851-0.106,7.342-0.79
		c-3.532-19.815-9.952-33.851-0.988-54.06c6.129-13.825,15.283-22.098,29.185-27.398c-11.076-43.182-20.683-92.039-14.131-136.486
		c-6.423-13.421-11.622-26.737-15.995-40.933c-4.443-17.488-6.699-33.908-5.772-51.963c16.583,6.858,33.383,13.134,50.399,18.829
		c-4.861-6.374-8.294-13.32-11.162-20.789c10.654,5.437,20.959,9.901,32.487,13.112C877.89,423.032,872.926,410.921,869.202,398.578
		z"/>
	<path style="fill:#FEFEFE;" d="M980.129,677.051c2.17,1.013,4.945,2.883,5.782,5.182c1.005,2.756,0.653,5.298-0.731,7.842
		c-1.764,3.24-4.343,4.839-7.849,5.748l-0.592-1.288c1.294-2.813,2.781-5.482,3.042-8.614
		C980.152,682.964,980.099,680.026,980.129,677.051z"/>
	<path style="fill:#FEFEFE;" d="M1148.418,677.653c4.114,1.08,5.717,2.554,8.104,6.144c-0.055,3.618-0.553,5.864-3.292,8.416
		c-2.164,2.017-5.394,3.442-8.326,3.73C1148.179,689.685,1148.436,684.536,1148.418,677.653z"/>
	<path style="fill:#FEFEFE;" d="M945.954,677.67c2.74,3.955,0.751,9.682,4.112,14.08c0.364,0.476,0.751,0.933,1.127,1.399
		l-0.486,1.721l-3.982,0.651c-2.264-1.293-4.363-2.616-5.839-4.845c-1.396-2.111-2.05-4.541-1.231-6.993
		C940.741,680.43,943.169,679.197,945.954,677.67z"/>
	<path style="fill:#FEFEFE;" d="M1121.064,695.633c-2.616,0.894-5.092,1.929-7.8,0.523c-2.189-1.139-3.234-2.567-4.079-4.8
		c-0.978-2.585-0.621-5.633,0.651-8.065c1.366-2.609,3.402-4.28,6.158-4.986l-0.606,5.954c-0.245,4.259,1.344,6.491,4.012,9.539
		C1119.946,694.417,1120.501,695.029,1121.064,695.633z"/>
	<path style="fill:#BC333D;" d="M1119.7,674.019c3.988-3.344,8.265-6.687,13.778-6.193c6.534,0.586,9.962,6.877,14.94,9.827
		c0.018,6.883-0.239,12.032-3.514,18.29c-7.579,3.796-16.057,1.574-23.84-0.31c-0.564-0.604-1.118-1.216-1.664-1.836
		c-2.669-3.048-4.257-5.28-4.012-9.539c0.188,0.239,0.37,0.48,0.562,0.715c3.785,4.622,7.489,8.898,13.888,9.214
		c3.979,0.196,8.247-1.382,11.179-4.065c2.824-2.583,3.977-5.178,4-9.004c-0.784-2.001-1.305-3.063-3.024-4.457
		C1136.333,672.079,1126.422,673.423,1119.7,674.019z"/>
	<path style="fill:#192E35;" d="M1112.601,663.463c0.437-4.563,0.994-5.995,4.625-9.149c5.586-4.851,12.845-6.195,20.066-5.627
		c7.175,0.563,14.395,3.779,19.082,9.343c3.647,4.331,4.347,8.418,4.653,13.923c-6.252-5.962-11.646-11.951-19.217-16.41
		c-9.415-5.543-18.819,5.427-27.778,7.612C1113.559,663.269,1113.077,663.361,1112.601,663.463z"/>
	<path style="fill:#192E35;" d="M958.966,647.543c1.499-0.08,2.987-0.1,4.488-0.033c6.954,0.314,15.076,4.004,19.715,9.186
		c0.637,2.424,0.521,2.44-0.517,4.747c-4.629-1.458-8.371-4.896-12.9-6.672c-6.574-2.577-13.813-0.962-19.971,1.856
		c-0.357,0.163-0.713,0.335-1.068,0.502c-5.027,3.465-7.716,6.946-11.732,11.275c-1.689,1.821-3.014,3.336-5.562,3.396
		c-0.098-0.386-0.233-0.766-0.292-1.16c-0.611-4.03,1.117-8.31,3.589-11.43C940.868,651.449,949.603,648.729,958.966,647.543z"/>
	<path style="fill:#192E35;" d="M1119.7,674.019c6.722-0.596,16.632-1.94,22.292,2.642c1.719,1.395,2.24,2.456,3.024,4.457
		c-0.023,3.826-1.176,6.421-4,9.004c-2.932,2.683-7.199,4.261-11.179,4.065c-6.399-0.316-10.103-4.592-13.888-9.214
		c-0.192-0.235-0.374-0.476-0.562-0.715l0.606-5.954l0.243-0.705L1119.7,674.019z"/>
	<path style="fill:#192E35;" d="M979.782,685.92c-4.674,4.218-7.03,7.824-13.702,8.804c-4.049,0.594-7.918,0.259-11.12-2.536
		c-2.758-2.411-3.992-6.248-3.926-9.829c0.071-4,1.672-7.963,4.704-10.64c2.675-2.364,5.942-3.238,9.453-3.022
		c6.579,0.408,10.85,3.469,14.938,8.353C980.099,680.026,980.152,682.964,979.782,685.92z"/>
	<path style="fill:#FE4F5A;" d="M1067.934,692.807c1.213,1.552,1.174,1.166,1.654,2.732c2.007,6.538,8.334,38.824,8.21,44.817
		c-0.059,2.867-0.721,5.615-2.189,8.094c-2.867,4.841-8.157,7.371-13.422,8.714c-14.493,3.692-30.766,1.154-43.586-6.272
		l-2.597-3.138c0.374-2.55,0.417-4.143,2.152-6.166c4.249,3.285,9.456,6.719,14.715,8.045c7.973,2.009,25.034,2.315,32.137-2.103
		c12.757-7.932-1.964-36.877,2.618-53.643C1067.725,693.524,1067.829,693.167,1067.934,692.807z"/>
	<path style="fill:#192E35;" d="M983.461,607.835c5.511-0.919,11.612-0.753,17.214-1.003c1.417,7.82,2.307,15.781,3.387,23.656
		c-24.336-0.49-48.02-0.388-71.615,6.423l-15.409,5.272c-0.4-6.117-1.237-11.409,2.728-16.614
		C931.221,610.526,965.52,609.791,983.461,607.835z"/>
	<path style="fill:#192E35;" d="M1090.671,607.326c21.955,0.063,66.021,3.728,84.446,15.611c3.099,1.999,5.106,3.783,5.723,7.565
		c0.555,3.4,0.482,10.505-1.519,13.19c-29.279-14.38-60.271-11.922-91.971-11.783
		C1088.227,623.695,1088.915,615.408,1090.671,607.326z"/>
	<path style="fill:#FE4F5A;" d="M847.275,653.442c3.863-0.098,6.771-0.402,9.754,2.513c5.098,4.982,4.212,14.488,9.166,17.861
		l-1.827-0.527l1.754,0.835l0.878-0.555c2.229,8.68,1.768,26.374,2.658,36.29c2.295,24.878,5.347,49.664,9.155,74.357
		c2.019,13.025,3.963,26.047,6.777,38.928c1.944,8.898,5.335,18.937,6.195,27.905c0.175,1.844,0.026,2.568-0.737,4.194
		c-12.894-19.403-16.167-41.632-20.753-64.036c-0.796-3.832-1.188-7.659-1.595-11.55c-3.602-26.657-12.49-52.463-18.27-78.706
		c-1.329-6.027-3.926-12.236-4.547-18.331c-0.933-9.159,5.466-18.974,4.386-27.56L847.275,653.442z"/>
	<path style="fill:#FE9D76;" d="M846.583,653.344l0.692,0.098l2.993,1.619c1.08,8.586-5.319,18.401-4.386,27.56
		c0.621,6.095,3.218,12.304,4.547,18.331c5.78,26.243,14.668,52.049,18.27,78.706c-28.36-7.808-32.278-20.677-49.245-41.26
		c-2.516-3.052-4.751-2.566-8.41-2.805c2.558-0.053,4.851-0.106,7.342-0.79c-3.532-19.815-9.952-33.851-0.988-54.06
		C823.527,666.918,832.681,658.644,846.583,653.344z"/>
	<path style="fill:#FE4F5A;" d="M1082.573,820.979c-3.696-1.054-5.844-0.858-9.611-0.073c-1.797,0.374-2.285-0.135-3.957-0.788
		c1.519-0.061,2.589-0.266,3.994-0.862c17.014-7.22,52.672-9.723,66.041-18.827c1.09-0.741,2.132-1.452,3.271-2.13l2.63,0.708
		c1.801,1.966,2.142,2.354,2.718,4.933c-1.319,1.348-26.945,6.895-34.692,11.383c-0.368,0.212-0.729,0.433-1.094,0.649
		c-11.777,19.378-25.602,36.296-48.625,42.003c-1.043,0.258-2.091,0.492-3.144,0.7c-1.052,0.208-2.11,0.39-3.173,0.545
		c-1.062,0.155-2.128,0.285-3.197,0.388c-1.069,0.103-2.139,0.18-3.212,0.231c-1.073,0.052-2.146,0.076-3.22,0.073
		c-1.074-0.001-2.147-0.029-3.218-0.084c-1.073-0.056-2.143-0.138-3.212-0.245c-1.069-0.106-2.134-0.24-3.195-0.4
		c-1.062-0.159-2.119-0.345-3.173-0.557c-1.052-0.211-2.099-0.448-3.14-0.711c-1.041-0.264-2.075-0.553-3.101-0.866
		c-1.026-0.314-2.045-0.653-3.056-1.017c-1.01-0.365-2.011-0.753-3.001-1.166c-0.991-0.414-1.971-0.852-2.94-1.313
		c-0.971-0.461-1.929-0.946-2.875-1.454c-0.945-0.509-1.877-1.041-2.797-1.595c-9.194-5.654-21.09-16.152-24.779-26.496
		c-3.25-4.359-6.791-8.884-11.275-12.034c-3.512-2.466-12.645-4.355-14.586-7.475c0.261-0.12,0.508-0.278,0.786-0.357
		c5.37-1.531,19.501,5.784,25.485,7.238c12.857,3.126,31.325,8.69,44.131,9.221c8.829,0.365,25.52-2.442,32.817,1.993
		C1071.409,823.127,1077.369,821.786,1082.573,820.979z"/>
	<path style="fill:#FEFEFE;" d="M1082.573,820.979c5.505-0.606,15.934-4.312,20.803-2.093
		c-20.209,16.671-40.219,22.882-66.472,20.504c-11.311-1.027-23.139-3.926-33.038-9.653c-3.487-2.019-6.483-4.892-9.956-6.838
		l0.104-2.863c7.14-1.733,29.075,2.618,38.373,3.128c11.35,0.625,22.468,0.502,33.783-0.568
		C1071.409,823.127,1077.369,821.786,1082.573,820.979z"/>
	<path style="fill:#192E35;" d="M869.202,398.578c107.522,17.482,237.958-86.708,319.645,27.666
		c11.814,16.54,19.211,34.475,21.755,54.67c0.837,7.463,1.415,14.827,1.658,22.335c11.93,3.982,18.915,11.042,24.516,22.41
		c17.304,35.133,12.136,93.932,1.674,130.853l-2.654,10.268c-1.591,9.025-2.395,21.463-7.495,29.146
		c-3.551-12.888-2.875-38.102-4.445-52.649c-4.798-44.464-19.448-84.646-38.173-124.95c-0.327-0.02-0.653-0.039-0.98-0.063
		c-9.951-0.774-20.04-3.555-29.832-5.488c-19.054-3.765-38.561-5.792-57.982-4.261c-35.927,2.834-65.377,21.663-97.092,36.889
		c-38.465,18.468-77.324,28.773-120.148,29.706c-6.358,31.666-13.108,66.057-12.649,98.46l-0.878,0.555l-1.754-0.835l1.827,0.527
		c-4.953-3.373-4.067-12.879-9.166-17.861c-2.983-2.916-5.89-2.611-9.754-2.513l-0.692-0.098
		c-11.076-43.182-20.683-92.039-14.131-136.486c-6.423-13.421-11.622-26.737-15.995-40.933c-4.443-17.488-6.699-33.908-5.772-51.963
		c16.583,6.858,33.383,13.134,50.399,18.829c-4.861-6.374-8.294-13.32-11.162-20.789c10.654,5.437,20.959,9.901,32.487,13.112
		C877.89,423.032,872.926,410.921,869.202,398.578z"/>
	<path style="fill:#FE4F5A;" d="M884.734,555.672c40.082,4.116,84.852-13.384,119.993-31.48
		c46.083-23.729,84.374-50.197,138.738-37.105c20.334,4.898,31.233,13.439,42.218,31.241c-0.327-0.02-0.653-0.039-0.98-0.063
		c-9.951-0.774-20.04-3.555-29.832-5.488c-19.054-3.765-38.561-5.792-57.982-4.261c-35.927,2.834-65.377,21.663-97.092,36.889
		c-38.465,18.468-77.324,28.773-120.148,29.706L884.734,555.672z"/>
	<path style="fill:#375963;" d="M1264.926,731.772c50.728,1.531,101.354,4.704,151.875,9.517
		c24.305,2.319,48.823,4.504,72.924,8.453l7.703,1.123c30.469,5.658,58.681,11.614,86.12,26.711
		c7.914,5.484,15.747,11.081,23.501,16.792c7.344,6.252,14.409,12.803,21.196,19.654c6.788,6.851,13.273,13.977,19.456,21.377
		l5.884,7.201c62.997,84.927,104.408,185.272,137.119,285.156c7.934,24.224,16.079,48.414,22.592,73.071
		c9.606,36.36,18.772,73.306,26.927,110.017c5.153,23.188,9.125,46.599,14.611,69.724c3.649,15.971,10.066,71.446,14.542,81.362
		c-1.006,9.135,3.822,31.764,5.008,41.903c2.954,25.246,5.362,50.544,7.224,75.895c45.013,45.199,53.231,97.658,53.113,158.907
		l-0.77,87.218c-0.314,27.984,0.329,56.473-4.933,84.074c-14.615,0.727-54.63,3.491-66.717-0.382
		c-23.454-2.534-53.537-0.459-77.739-0.406c-60.518,0.133-121.103,1.399-181.609,0.796c-42.548-1.141-85.45,0.968-128.047,0.933
		l-974.843-0.672c-3.271-0.02-7.536,0.633-10.274-1.397c-7.747,3.181-49.303,0.782-61.029,0.698l-132.903-0.319
		c-21.722,0.041-44.774-1.401-66.319,0.668c-5.641,3.532-60.192,1.985-67.725,0.713l-1.085-8.792
		c-0.065-0.345-0.152-0.686-0.197-1.033c-1.96-15.148-1.475-31.333-1.658-46.624c-0.655-54.75,0.634-157.737,16.905-207.717
		c8.233-25.289,21.815-45.689,38.318-66.233c1.141-13.664,11.487-108.071,10.241-113.083c-16.981-14.77-33.28-30.263-50.511-44.766
		c27.172-12.477,37.187-22.972,48.2-50.605c1.554-3.898,2.744-8.782,5.929-11.585c3.491,3.6,6.903,7.316,10.705,10.591
		c4.527-10.654,8.388-42.101,11.287-55.552c5.97-27.69,13.423-55.132,20.561-82.543c35.225-135.273,108.187-307.774,201.729-412.172
		c17.429-19.45,37.364-41.144,61.325-52.375c22.58-10.587,64.579-12.818,90.034-15.785c62.474-7.283,124.632-13.288,187.449-16.691
		c3.659,0.239,5.895-0.247,8.41,2.805c16.967,20.583,20.885,33.452,49.245,41.26c0.406,3.892,0.798,7.718,1.595,11.55
		c4.586,22.404,7.859,44.633,20.753,64.036c5.021,8.737,11.003,16.655,17.024,24.707c4.429,5.134,8.803,10.316,13.12,15.546
		c0.417,0.068,0.843,0.094,1.254,0.2c9.025,2.34,27.752,17.7,37.293,22.968c34.636,19.123,85.619,29.708,124.656,20.62
		c12.279-2.859,24.583-8.294,35.78-13.992c4.961-2.526,43.582-26.802,45.013-27.002c3.634-7.512,13.239-15.25,19.05-21.396
		c12.242-16.961,23.85-37.665,29.816-57.811c2.424-8.179,3.061-18.78,7.052-26.177l3.042-16.25l5.693-3.61
		C1249.543,763.689,1256.777,750.961,1264.926,731.772z"/>
	<path style="fill:#192E35;" d="M173.826,1422.311c27.172-12.477,37.187-22.972,48.2-50.605c1.554-3.898,2.744-8.782,5.929-11.585
		c3.491,3.6,6.903,7.316,10.705,10.591c0.892,7.401-11.326,89.234-14.323,96.365
		C207.356,1452.307,191.057,1436.814,173.826,1422.311z"/>
	<path style="fill:#192E35;" d="M315.257,1548.395l4.082,0.071c-9.85,30.424-21.937,59.683-6.434,90.646
		c10.885,21.739,34.98,40.854,57.907,48.347c24.111,7.879,64.114,11.232,90.442,15.499c112.161,18.18,226.763,23.623,340.153,28.715
		c97.79,4.428,195.629,6.348,293.519,5.76c97.889-0.588,195.699-3.683,293.429-9.286c73.436-4.382,146.405-8.998,219.449-17.955
		c34.016-4.169,104.185-11.271,132.307-25.745c17.12-8.812,31.157-23.197,37.099-41.75c10.105-31.56-1.889-62.895-9.821-93.246
		l6.26,0.564l0.488,0.6c8.97,24.654,15.195,56.418,10.922,82.651c-3.383,20.779-15.179,38.602-32.189,50.818
		c-8.594,6.172-18.464,10.472-28.585,13.453c-16.442,4.841-34.053,6.785-50.973,9.433c-32.191,5.303-64.517,9.581-96.98,12.833
		c-53.09,5.578-106.354,8.414-159.626,11.585c-118.538,7.717-237.201,11.226-355.989,10.527
		c-128.291,0.946-256.435-2.954-384.43-11.699c-36.805-2.546-73.757-4.737-110.472-8.343
		c-56.878-6.074-113.516-13.893-169.912-23.458c-32.95-5.699-62.707-19.481-82.404-47.722
		c-14.345-20.571-16.787-47.481-9.035-71.094c3.267-9.952,8.484-19.297,10.195-29.726c0.053-0.325,0.098-0.649,0.147-0.974
		L315.257,1548.395z"/>
	<path style="fill:#FEFEFE;" d="M1184.237,876.895c12.242-16.961,23.85-37.665,29.816-57.811c2.424-8.179,3.061-18.78,7.052-26.177
		c38.621,1.216,77.179,3.487,115.674,6.815c38.495,3.328,76.871,7.708,115.127,13.139c25.367,3.477,54.305,5.431,78.051,15.142
		c16.577,6.781,31.174,19.723,43.247,32.666c17.716,18.995,31.539,40.376,45.293,62.28
		c105.41,167.893,154.078,431.879,165.924,628.657l-10.284-0.99l-0.488-0.6c-5.413-173.416-44.801-365.699-117.978-523.236
		l-3.04-6.793c-13.02-31.398-39.684-86.301-63.534-109.367c-11.761-11.373-26.198-17.006-41.907-20.812
		c-60.867-14.74-132.321-11.583-194.964-12.142C1296.31,877.165,1240.147,875.903,1184.237,876.895z"/>
	<path style="fill:#FEFEFE;" d="M314.806,1548.899c-2.803,0.51-5.411,1.401-8.067,0.002c-1.062-1.719-1.648-3.128-1.791-5.137
		c-0.47-6.548,1.517-14.429,2.205-21.051c1.721-16.544,3.222-33.091,5.158-49.613c22.147-189.074,71.756-378.522,159.819-547.985
		c8.09-15.566,30.98-60.896,40.946-71.96c10.57-11.734,34.739-17.557,49.401-22.357c50.199-16.44,104.8-29.544,157.412-34.714
		c49.686-4.882,100.498-4.183,150.405-4.876c4.586,22.404,7.859,44.633,20.753,64.036c5.021,8.737,11.003,16.655,17.024,24.707
		c-20.187-3.738-55.457-1.76-77.444-1.854c-73.273-0.312-146.068,1.252-219.284,3.685c-21.146,0.587-42.277,1.526-63.393,2.818
		c-13.316,0.77-27.335,0.929-40.382,3.869c-16.924,19.264-40.872,74.294-51.783,99.012c-6.545,14.962-12.866,30.017-18.964,45.166
		c-6.1,15.149-11.974,30.384-17.623,45.707c-5.65,15.323-11.073,30.725-16.267,46.207c-5.194,15.482-10.158,31.038-14.893,46.667
		c-4.736,15.629-9.238,31.325-13.508,47.087c-4.271,15.763-8.309,31.584-12.114,47.465s-7.373,31.815-10.705,47.802
		c-3.333,15.987-6.43,32.02-9.29,48.098c-6.677,38.483-12.669,77.073-17.978,115.77c-3.159,23.574-5.349,47.494-9.186,70.943
		L314.806,1548.899z"/>
	<path style="fill:#FEFEFE;" d="M180.647,1728.219c44.993,2.873,91.702,14.119,134.861,26.702
		c97.211,28.344,127.223,68.042,174.279,153.878c-7.747,3.181-49.303,0.782-61.029,0.698l-132.903-0.319
		c-21.722,0.041-44.774-1.401-66.319,0.668l-1.458-1.325C185.958,1869.733,182.958,1782.477,180.647,1728.219z"/>
	<path style="fill:#FEFEFE;" d="M1602.953,1909.935c15.24-56.778,42.03-88.629,92.421-117.708
		c55.891-32.252,154.403-63.644,218.87-63.691c-0.478,62.976-9.002,131.655-51.943,181.009c-23.454-2.534-53.537-0.459-77.739-0.406
		C1724.044,1909.271,1663.459,1910.537,1602.953,1909.935z"/>
	<path style="fill:#83B7B4;" d="M1652.631,1019.987l3.04,6.793c73.177,157.537,112.565,349.821,117.978,523.236l-6.26-0.564
		c-16.385-2.832-34.075-3.091-50.689-4.847c-5.815-45.852-38.967-89.182-59.415-129.871c-9.913-19.726-18.633-40.031-28.054-59.991
		c-8.959-18.986-18.625-37.648-27.121-56.851c-4.676-8.057-8.514-16.822-12.655-25.179c3.293-15.603,2.946-33.291,3.628-49.213
		c2.305-53.741,0.86-133.201,29.614-179.274C1629.451,1033.401,1639.874,1022.937,1652.631,1019.987z"/>
	<path style="fill:#69ACAB;" d="M1652.631,1019.987l3.04,6.793c-14.666,6.325-23.031,21.626-28.621,35.854
		c-9.021,22.966-13.508,47.14-16.271,71.564c-4.439,39.239-5.835,78.773-6.595,118.233c-0.243,12.626,0.868,25.375,0.2,37.958
		c-0.165,3.136-0.743,4.823-2.275,7.504c-4.676-8.057-8.514-16.822-12.655-25.179c3.293-15.603,2.946-33.291,3.628-49.213
		c2.305-53.741,0.86-133.201,29.614-179.274C1629.451,1033.401,1639.874,1022.937,1652.631,1019.987z"/>
	<path style="fill:#83B7B4;" d="M1184.237,876.895c55.91-0.992,112.073,0.269,167.989,0.77
		c62.644,0.559,134.097-2.597,194.964,12.142c15.709,3.806,30.147,9.439,41.907,20.812c23.85,23.066,50.513,77.969,63.534,109.367
		c-12.757,2.95-23.18,13.415-29.934,24.24c-28.754,46.073-27.309,125.532-29.614,179.274c-0.682,15.922-0.335,33.61-3.628,49.213
		c-14.366-25.657-51.447-92.962-70.625-110.972l-1.217-2.469c-7.479-6.162-13.37-15.458-20.197-22.5
		c-24.63-25.408-55.869-51.059-89.374-62.932l0.674-35.694c0.482-38.138,1.848-74.159-26.919-103.265
		c-1.322-1.356-2.688-2.664-4.1-3.926s-2.865-2.474-4.361-3.636c-1.495-1.161-3.028-2.269-4.6-3.324
		c-1.572-1.055-3.179-2.054-4.821-2.997c-1.642-0.945-3.314-1.831-5.017-2.66c-1.702-0.828-3.43-1.596-5.186-2.305
		c-1.756-0.708-3.534-1.355-5.335-1.942c-1.801-0.585-3.619-1.108-5.456-1.568c-23.268-6.021-50.871-3.783-74.876-3.863
		l-100.845-0.098l-2.013-10.27C1168.822,890.779,1178.426,883.041,1184.237,876.895z"/>
	<path style="fill:#FE4F5A;" d="M1518.83,1161.741c19.178,18.01,56.259,85.315,70.625,110.972
		c4.141,8.357,7.979,17.122,12.655,25.179c8.496,19.203,18.162,37.865,27.121,56.851c9.421,19.96,18.141,40.266,28.054,59.991
		c20.448,40.688,53.601,84.019,59.415,129.871c-22.516-3.285-45.237-5.027-67.87-7.246c-33.157-3.374-66.345-6.406-99.565-9.094
		c-27.66-2.127-56.285-3.355-83.694-7.367c-4.79-0.772-9.782-0.917-14.623-1.299l-14.348-0.549l-5.856-0.231
		c-1.533-10.189-5.354-19.942-6.517-30.226c-4.196-15.724-5.868-32.877-7.23-49.078c-7.081-84.284,11.42-163.564,62.311-231.984
		C1491.435,1191.226,1505.779,1177.223,1518.83,1161.741z"/>
	<path style="fill:#BC333D;" d="M1425.729,1465.599c-2.013-17.161-7.13-42.51-4.014-59.409l1.121-1.182
		c7.703,7.994,31.966,83.194,37.107,98.964c34.671-23.895,80.315-36.078,122.169-37.244l-1.021,0.32
		c-10.811,3.312-22.11,4.833-33.003,7.859c-21.504,5.974-43.698,17.016-62.664,28.611c0.461-0.008,0.923-0.004,1.384-0.027
		c6.393-0.304,27.454-11.303,36.109-13.692c51.171-14.125,110.382-2.673,152.941,28.532c-0.386-0.108-0.772-0.21-1.158-0.323
		c-12.297-3.559-23.621-10.009-35.97-13.365c-37.734-10.26-85.103-7.383-123.425-0.029c-9.707,1.862-40.692,12.304-46.552,12.512
		l-0.476-0.082l-2.707,3.853c-4.79-0.772-9.782-0.917-14.623-1.299l-14.348-0.549c-0.078-7.354-3.716-16.547-5.362-23.932
		C1429.061,1485.345,1427.399,1475.471,1425.729,1465.599z"/>
	<path style="fill:#83B7B4;" d="M507.568,888.47c13.047-2.94,27.066-3.099,40.382-3.869c21.116-1.292,42.247-2.231,63.393-2.818
		c73.216-2.434,146.011-3.998,219.284-3.685c21.988,0.094,57.257-1.885,77.444,1.854c4.429,5.134,8.803,10.316,13.12,15.546
		c5.18,6.564,10.521,13.055,15.295,19.924c-0.346,14.011-0.449,28.023-0.31,42.036c-0.053,12.494-0.949,25.649,0.459,38.061
		c-1.923,0.674-4.034,1.233-5.833,2.181c-10.595,6.358-16.534,13.578-23.062,23.833c-3.487,1.205-6.991,2.581-10.615,3.3
		c-55.254,8.675-116.203,20.689-169.44,37.748c-17.674,5.468-34.835,11.409-51.812,18.774c-4.927,1.972-12.926,4.294-16.718,8.069
		c-29.734,18.274-55.009,38.973-77.557,65.62c-18.827,25.506-37.518,51.095-54.65,77.787
		c-10.372,16.161-19.309,33.673-30.173,49.439c-1.505,3.038-2.903,6.26-4.751,9.1c-12.449,23.05-26.488,45.282-39.521,68.011
		c-33.522,58.468-66.727,120.289-89.554,183.833c-11.04,1.245-34.1,2.211-43.61,5.251l-4.082-0.071
		c3.836-23.45,6.027-47.369,9.186-70.943c5.309-38.697,11.301-77.287,17.978-115.77c2.86-16.078,5.957-32.111,9.29-48.098
		c3.332-15.987,6.901-31.921,10.705-47.802s7.842-31.703,12.114-47.465c4.27-15.762,8.773-31.458,13.508-47.087
		c4.734-15.629,9.698-31.185,14.893-46.667c5.194-15.482,10.617-30.885,16.267-46.207c5.649-15.323,11.523-30.558,17.623-45.707
		c6.098-15.149,12.419-30.204,18.964-45.166C466.695,962.764,490.643,907.734,507.568,888.47z"/>
	<path style="fill:#69ACAB;" d="M492.024,1291.37c-4.122-12.916-2.503-40.174-2.76-54.813c-0.87-49.682,0.827-111.552-11.75-159.305
		c-2.991-11.356-8.098-22.917-15.693-31.974c-3.824-4.561-12.469-9.645-14.223-14.695c1.531-1.437,3.124-2.068,5.278-2.019
		c5.039,0.11,10.143,4.723,13.449,8.083c42.898,43.62,31.274,186.036,30.451,245.623
		C495.27,1285.308,493.871,1288.531,492.024,1291.37z"/>
	<path style="fill:#375963;" d="M675.873,1081.354c-0.312-28.352-3.875-87.059,3.248-111.865c0.436-1.476,0.916-2.935,1.442-4.38
		c0.525-1.446,1.096-2.873,1.711-4.284c0.614-1.41,1.271-2.8,1.97-4.169c0.7-1.369,1.442-2.716,2.226-4.039
		c0.783-1.324,1.605-2.623,2.469-3.896c0.864-1.273,1.767-2.518,2.707-3.734c0.939-1.217,1.916-2.403,2.93-3.559
		c1.014-1.157,2.063-2.281,3.146-3.373c10.358-10.509,24.164-17.686,38.555-20.773c24.213-5.196,55.816-2.303,81.011-2.152
		c39.733,0.295,79.466,0.392,119.199,0.29c-0.346,14.011-0.449,28.023-0.31,42.036c-0.053,12.494-0.949,25.649,0.459,38.061
		c-1.923,0.674-4.034,1.233-5.833,2.181c-10.595,6.358-16.534,13.578-23.062,23.833c-3.487,1.205-6.991,2.581-10.615,3.3
		c-55.254,8.675-116.203,20.689-169.44,37.748C710.011,1068.048,692.85,1073.989,675.873,1081.354z"/>
	<path style="fill:#192E35;" d="M727.685,1062.58c-1.731-3.873-1.446-8.684-1.46-12.855c-0.096-27.513-1.184-53.609,19.848-74.294
		c0.968-0.971,1.967-1.908,2.997-2.811c1.031-0.905,2.089-1.775,3.177-2.609c1.089-0.833,2.204-1.63,3.344-2.391
		c1.141-0.76,2.305-1.481,3.494-2.164c1.19-0.683,2.4-1.326,3.63-1.927c1.232-0.603,2.482-1.164,3.751-1.685
		c1.268-0.52,2.553-0.997,3.853-1.431c1.301-0.434,2.615-0.825,3.941-1.172c20.301-5.192,48.163-2.546,69.316-2.438l92.6,0.655
		c-0.053,12.494-0.949,25.649,0.459,38.061c-1.923,0.674-4.034,1.233-5.833,2.181c-10.595,6.358-16.534,13.578-23.062,23.833
		c-3.487,1.205-6.991,2.581-10.615,3.3C841.871,1033.507,780.922,1045.521,727.685,1062.58z"/>
	<path style="fill:#375963;" d="M921.191,895.498c0.417,0.068,0.843,0.094,1.254,0.2c9.025,2.34,27.752,17.7,37.293,22.968
		c34.636,19.123,85.619,29.708,124.656,20.62c12.279-2.859,24.583-8.294,35.78-13.992c4.961-2.526,43.582-26.802,45.013-27.002
		l2.013,10.27l100.845,0.098c24.005,0.08,51.608-2.158,74.876,3.863c1.836,0.46,3.655,0.983,5.456,1.568
		c1.801,0.587,3.579,1.234,5.335,1.942c1.756,0.709,3.485,1.478,5.186,2.305c1.703,0.829,3.375,1.716,5.017,2.66
		c1.642,0.943,3.248,1.942,4.821,2.997c1.572,1.055,3.106,2.163,4.6,3.324c1.496,1.162,2.95,2.375,4.361,3.636
		s2.778,2.571,4.1,3.926c28.767,29.106,27.401,65.126,26.919,103.265l-0.674,35.694c33.505,11.873,64.745,37.524,89.374,62.932
		c6.828,7.042,12.718,16.338,20.197,22.5l1.217,2.469c-13.051,15.483-27.395,29.485-39.523,45.791
		c-50.891,68.42-69.392,147.7-62.311,231.984c1.362,16.201,3.034,33.354,7.23,49.078c1.164,10.284,4.984,20.038,6.517,30.226
		l5.856,0.231l14.348,0.549c4.841,0.382,9.833,0.527,14.623,1.299c27.409,4.012,56.034,5.239,83.694,7.367
		c33.22,2.688,66.408,5.72,99.565,9.094c22.633,2.22,45.354,3.961,67.87,7.246c16.614,1.756,34.304,2.015,50.689,4.847
		c7.932,30.351,19.926,61.686,9.821,93.246c-5.942,18.554-19.979,32.938-37.099,41.75c-28.121,14.474-98.291,21.575-132.307,25.745
		c-73.044,8.957-146.013,13.574-219.449,17.955c-97.73,5.603-195.54,8.698-293.429,9.286c-97.889,0.588-195.729-1.332-293.519-5.76
		c-113.39-5.092-227.992-10.536-340.153-28.715c-26.329-4.267-66.331-7.62-90.442-15.499c-22.927-7.493-47.022-26.608-57.907-48.347
		c-15.503-30.963-3.416-60.222,6.434-90.646c9.51-3.04,32.57-4.006,43.61-5.251c22.827-63.544,56.032-125.365,89.554-183.833
		c13.033-22.729,27.072-44.962,39.521-68.011c1.848-2.84,3.246-6.062,4.751-9.1c10.864-15.766,19.801-33.279,30.173-49.439
		c17.133-26.692,35.823-52.282,54.65-77.787c22.547-26.647,47.822-47.347,77.557-65.62c3.792-3.775,11.791-6.097,16.718-8.069
		c16.977-7.365,34.138-13.306,51.812-18.774c53.237-17.059,114.186-29.073,169.44-37.748c3.624-0.719,7.128-2.095,10.615-3.3
		c6.528-10.256,12.467-17.476,23.062-23.833c1.799-0.947,3.91-1.507,5.833-2.181c-1.409-12.412-0.513-25.567-0.459-38.061
		c-0.139-14.013-0.035-28.025,0.31-42.036C931.713,908.553,926.371,902.062,921.191,895.498z"/>
	<path style="fill:#FE9D76;" d="M1296.475,1498.435c4.757,4.59,8.871,9.455,13.008,14.605c-10.564-0.474-49.127-0.978-56.512-2.932
		c4.243-0.498,8.833-0.098,13.116-0.053C1276.182,1503.921,1284.433,1499.286,1296.475,1498.435z"/>
	<path style="fill:#DDDFDF;" d="M821.837,1481.866c7.328,8.253,13.212,17.723,20.514,25.924c-13.798,1.37-32.233,3.351-45.834,0.801
		C804.828,1499.56,813.268,1490.652,821.837,1481.866z"/>
	<path style="fill:#DDDFDF;" d="M1270.879,1471.551l5.909,5.223c6.264,7.465,13.065,14.513,19.687,21.661
		c-12.042,0.851-20.293,5.486-30.388,11.62c-4.284-0.045-8.874-0.445-13.116,0.053l-2.997-1.701l-0.643-2.058
		c-2.589-5.047-5.915-9.556-9.178-14.178C1250.637,1485.673,1260.722,1478.542,1270.879,1471.551z"/>
	<path style="fill:#192E35;" d="M965.965,1496.323c6.85-6.809,13.331-14.49,21.141-20.207c18.921-13.853,47.406-12.857,69.892-12.82
		c26.819,0.043,51.851,0.982,71.889,21.279c4.843,4.904,10.056,10.975,13.161,17.137l0.114,2.438
		c-29.769-1.897-59.569-2.845-89.399-2.842c-29.83,0.003-59.63,0.955-89.399,2.856l-1.927-0.639l-0.476-1.443
		C962.686,1500.197,964.336,1498.286,965.965,1496.323z"/>
	<path style="fill:#FE4F5A;" d="M1121.048,1390.67c51.796,12.916,112.977,41.342,149.831,80.881
		c-10.158,6.991-20.242,14.123-30.727,20.62c-12.11-9.964-76.021-8.198-93.241-6.754c-1.87-3.22-3.863-6.43-6.031-9.457
		c-12.465-17.392-29.594-22.068-49.589-25.479C1091.585,1421.952,1103.326,1410.698,1121.048,1390.67z"/>
	<path style="fill:#192E35;" d="M1176.386,959.373l1.18-2.352c26.557,0.621,53.017,0.588,79.586,0.506
		c17.502-0.053,37.497-2.023,54.624,1.811c11.265,2.522,22.186,7.92,30.204,16.324c18.356,19.244,16.122,46.66,15.685,71.209
		c-15.74-6.807-63.113-20.05-79.895-21.33c-26.343-7.414-56.628-14.515-84.045-15.417l-8.194-4.32
		C1182.934,990.263,1179.518,974.815,1176.386,959.373z"/>
	<path style="fill:#FE4F5A;" d="M1193.725,1010.123c27.417,0.903,57.703,8.004,84.045,15.417
		c-17.618,29.067-39.706,54.574-60.279,81.512c-25.894,33.906-50.981,68.626-77.996,101.649
		c-11.352,13.825-22.81,27.563-34.373,41.213c-5.533,6.505-12.786,13.416-17.267,20.526c-10.46,11.759-21.077,25.9-33.189,35.866
		c-2.274,2.575-4.494,5.245-6.889,7.706c-1.599-21.592-0.08-44.394-0.045-66.08l-0.392-121.373
		c1.779-9.241,1.315-18.774,4.037-27.866l-2.289-2.042c1.615-1.576,1.374-2.023,3.751-2.044
		c7.554,6.015,24.005,30.161,32.942,39.813c6.187,6.683,13.731,13.51,23.405,13.51c14.923,0,31.964-17.004,41.889-26.684
		c20.861-20.344,58.264-56.463,57.88-87.292C1208.826,1023.625,1200.448,1016.926,1193.725,1010.123z"/>
	<path style="fill:#FEFEFE;" d="M1051.377,1098.693l0.982-0.318c0.952,4.949,0.651,10.058,1.015,15.072
		c1.635,22.615,1.18,45.017,1.074,67.685c-0.197,41.727-0.125,83.452,0.218,125.175c-2.274,2.575-4.494,5.245-6.889,7.706
		c-1.599-21.592-0.08-44.394-0.045-66.08l-0.392-121.373C1049.119,1117.318,1048.655,1107.785,1051.377,1098.693z"/>
	<path style="fill:#192E35;" d="M1087.855,1270.44l0.545,1.803c-12.953,17.431-32.705,38.547-48.937,52.974
		c-52.429-0.345-110.154,16.426-156.038,41.458c-13.219,7.212-24.779,16.614-37.681,23.983l-0.927,1.835
		c10.264-5.609,19.276-13.3,29.301-19.278c4.057-2.42,9.063-4.079,13.368-6.158c28.005-13.525,60.534-28.677,91.581-32.031
		l0.692,0.502c-0.555,0.108-1.111,0.206-1.664,0.32c-51.569,10.674-102.24,34.514-144.063,66.358
		c6.185,14.57,13.408,28.64,19.691,43.138c13.992-10.419,27.842-21.124,43.055-29.736c56.61-32.044,123.494-40.87,187.514-33.973
		c-4.476,0.165-9.018,0.159-13.463,0.69c17.128,1.666,33.567,3.691,50.219,8.345c-17.723,20.028-29.463,31.282-29.757,59.81
		c-28.115-3.712-60.134-1.099-88.043,3.205c-16.108,2.799-29.967,13.61-39.298,26.68c-2.571,3.6-4.763,7.624-6.789,11.546
		c-2.056-2.264-4.006-4.533-6.45-6.393c-29.626-1.197-60.757-1.801-90.287,1.129c-9.151,6.099-11.81,11.732-15.103,21.835
		l-2.971-0.692c-7.301-8.202-13.186-17.671-20.514-25.924c-8.569,8.786-17.009,17.695-25.32,26.725
		c-20.124,2.552-48.347,2.642-68.914,2.248c15.422-17.696,28.477-37.393,44.125-54.989
		c73.824-83.012,155.015-126.255,266.667-132.742c3.328-2.867,6.336-5.939,9.382-9.096c2.395-2.46,4.614-5.131,6.889-7.706
		C1066.778,1296.34,1077.395,1282.199,1087.855,1270.44z"/>
	<path style="fill:#FE4F5A;" d="M821.837,1481.866c45.233-46.853,104.453-83.902,169.788-93.419
		c8.796,21.814,10.446,42.003,11.624,65.239c-16.108,2.799-29.967,13.61-39.298,26.68c-2.571,3.6-4.763,7.624-6.789,11.546
		c-2.056-2.264-4.006-4.533-6.45-6.393c-29.626-1.197-60.757-1.801-90.287,1.129c-9.151,6.099-11.81,11.732-15.103,21.835
		l-2.971-0.692C835.049,1499.588,829.165,1490.119,821.837,1481.866z"/>
	<path style="fill:#FE9D76;" d="M921.191,895.498c0.417,0.068,0.843,0.094,1.254,0.2c9.025,2.34,27.752,17.7,37.293,22.968
		c34.636,19.123,85.619,29.708,124.656,20.62c12.279-2.859,24.583-8.294,35.78-13.992c4.961-2.526,43.582-26.802,45.013-27.002
		l2.013,10.27c1.993,11.026,4.29,22.1,5.935,33.179l3.25,17.633c3.132,15.442,6.548,30.89,9.145,46.43l8.194,4.32
		c6.724,6.803,15.101,13.502,15.23,23.832c0.384,30.829-37.019,66.948-57.88,87.292c-9.925,9.68-26.966,26.684-41.889,26.684
		c-9.674,0-17.218-6.828-23.405-13.51c-8.937-9.651-25.387-33.797-32.942-39.813c-2.377,0.021-2.136,0.468-3.751,2.044
		c-8.935,17.263-17.257,37.967-32.734,50.493c-30.42-9.948-58.231-32.552-78.972-56.402c-17.453-20.071-31.5-41.756-29.642-69.21
		c6.528-10.256,12.467-17.476,23.062-23.833c1.799-0.947,3.91-1.507,5.833-2.181c-1.409-12.412-0.513-25.567-0.459-38.061
		c-0.139-14.013-0.035-28.025,0.31-42.036C931.713,908.553,926.371,902.062,921.191,895.498z"/>
	<path style="fill:#FE4F5A;" d="M936.635,995.518c0.892,5.76,1.821,15.062-0.962,20.24c-3.132-5.986-4.504-11.309-4.872-18.059
		C932.601,996.751,934.712,996.192,936.635,995.518z"/>
	<path style="fill:#FE4F5A;" d="M921.191,895.498c0.417,0.068,0.843,0.094,1.254,0.2c9.025,2.34,27.752,17.7,37.293,22.968
		c34.636,19.123,85.619,29.708,124.656,20.62c12.279-2.859,24.583-8.294,35.78-13.992c4.961-2.526,43.582-26.802,45.013-27.002
		l2.013,10.27c1.993,11.026,4.29,22.1,5.935,33.179c-41.389,24.901-82.02,45.227-131.758,39.375
		c-44.239-5.205-77.938-31.719-104.892-65.694C931.713,908.553,926.371,902.062,921.191,895.498z"/>
	<path style="fill:#FEFEFE;" d="M930.802,997.699c0.367,6.75,1.74,12.073,4.872,18.059c9.317,17.559,25.626,34.622,41.987,45.844
		c29.673,20.356,62.772,28.456,98.268,21.83c30.663-5.723,89.136-31.637,106.556-58.064c4.888-7.416,4.792-11.181,3.046-19.566
		l8.194,4.32c6.724,6.803,15.101,13.502,15.23,23.832c0.384,30.829-37.019,66.948-57.88,87.292
		c-9.925,9.68-26.966,26.684-41.889,26.684c-9.674,0-17.218-6.828-23.405-13.51c-8.937-9.651-25.387-33.797-32.942-39.813
		c-2.377,0.021-2.136,0.468-3.751,2.044c-8.935,17.263-17.257,37.967-32.734,50.493c-30.42-9.948-58.231-32.552-78.972-56.402
		c-17.453-20.071-31.5-41.756-29.642-69.21C914.268,1011.276,920.207,1004.057,930.802,997.699z"/>
	<path style="fill:#FE4F5A;" d="M1366.191,1058.223c12.802,7.081,28.275,9.964,41.85,15.618
		c33.505,11.873,64.745,37.524,89.374,62.932c6.828,7.042,12.718,16.338,20.197,22.5l1.217,2.469
		c-13.051,15.483-27.395,29.485-39.523,45.791c-50.891,68.42-69.392,147.7-62.311,231.984c1.362,16.201,3.034,33.354,7.23,49.078
		c1.164,10.284,4.984,20.038,6.517,30.226l-2.687-0.288c-9.743-0.48-45.687,0.437-52.283-3.771
		c-48.896-84.858-128.554-151.411-223.799-177.164c18.693-22.235,38.99-43.337,56.639-66.431c6.662-4.278,23.519-28.35,29.589-35.79
		c37.215-45.627,75.972-88.768,107.134-139.061C1352.887,1084.127,1360.927,1071.592,1366.191,1058.223z"/>
	<path style="fill:#FEFEFE;" d="M1517.613,1159.272l1.217,2.469c-13.051,15.483-27.395,29.485-39.523,45.791
		c-50.891,68.42-69.392,147.7-62.311,231.984c1.362,16.201,3.034,33.354,7.23,49.078c1.164,10.284,4.984,20.038,6.517,30.226
		l-2.687-0.288c-18.351-44.794-19.962-129.06-11.556-176.825c9.921-56.371,36.552-108.912,72.558-153.057
		C1497.542,1178.246,1506.577,1166.996,1517.613,1159.272z"/>
	<path style="fill:#FE4F5A;" d="M897.125,1024.832c3.624-0.719,7.128-2.095,10.615-3.3c-1.858,27.454,12.189,49.139,29.642,69.21
		c20.74,23.85,48.551,46.454,78.972,56.402c15.477-12.526,23.799-33.23,32.734-50.493l2.289,2.042
		c-2.722,9.092-2.258,18.625-4.037,27.866l0.392,121.373c-0.035,21.686-1.554,44.488,0.045,66.08
		c-3.046,3.157-6.054,6.229-9.382,9.096c-111.652,6.487-192.843,49.729-266.667,132.742c-15.648,17.596-28.703,37.293-44.125,54.989
		c-23.985,3.955-48.102,2.766-71.962,6.391c-10.142,0.66-20.291,1.206-30.445,1.635c-17.543,0.333-34.959,2.499-52.445,3.783
		c-46.039,3.509-92.028,7.588-137.966,12.236c-23.979,1.499-47.978,5.437-71.836,8.33c22.827-63.544,56.032-125.365,89.554-183.833
		c13.033-22.729,27.072-44.962,39.521-68.011c1.848-2.84,3.246-6.062,4.751-9.1c10.864-15.766,19.801-33.279,30.173-49.439
		c17.133-26.692,35.823-52.282,54.65-77.787c22.547-26.647,47.822-47.347,77.557-65.62c3.792-3.775,11.791-6.097,16.718-8.069
		c16.977-7.365,34.138-13.306,51.812-18.774C780.922,1045.521,841.871,1033.507,897.125,1024.832z"/>
	<path style="fill:#BC333D;" d="M897.125,1024.832c3.624-0.719,7.128-2.095,10.615-3.3c-1.858,27.454,12.189,49.139,29.642,69.21
		c20.74,23.85,48.551,46.454,78.972,56.402c15.477-12.526,23.799-33.23,32.734-50.493l2.289,2.042
		c-2.722,9.092-2.258,18.625-4.037,27.866c-6.856,9.355-15.037,28.528-25.052,34.004c-5.764,3.153-12.912,2.117-18.903,0.296
		c-38.645-11.75-79.345-55.548-97.531-90.471C898.462,1056.191,892.08,1040.905,897.125,1024.832z"/>
	<path style="fill:#BC333D;" d="M581.598,1155.044c22.547-26.647,47.822-47.347,77.557-65.62
		c-4.825,11.448-16.553,22.647-24.16,32.572c-10.674,14.14-21.111,28.453-31.311,42.941l-1.95,0.58
		c-1.084-0.661-2.156-1.241-3.105-2.091c0.306,3.387,0.947,5.535-0.913,8.569c-5.523,8.998-12.373,17.61-18.447,26.274
		c-10.127,14.491-19.99,29.16-29.587,44.006c-42.863,66.29-77.693,136.598-101.223,212.066
		c-5.278,16.934-14.737,42.03-14.307,59.683c49.431-30.747,84.499-34.13,141.482-23.697
		c-31.823-17.896-85.111-29.189-122.004-28.066c51.199-9.459,105.006,3.11,150.707,26.659c12.034,6.201,22.937,14.523,34.933,20.587
		c12.177-53.76,24.569-109.896,27.558-164.967c0.198-3.649-0.014-9.67,3.089-11.961l1.517,0.809
		c2.397,10.911-0.306,23.423-0.872,34.531c-0.596,11.677-0.037,23.382-0.774,35.094c-1.595,25.336-5.5,50.305-9.031,75.417
		c-1.803,12.828-2.785,26.09-5.117,38.8c-10.142,0.66-20.291,1.206-30.445,1.635c-17.543,0.333-34.959,2.499-52.445,3.783
		c-46.039,3.509-92.028,7.588-137.966,12.236c-23.979,1.499-47.978,5.437-71.836,8.33c22.827-63.544,56.032-125.365,89.554-183.833
		c13.033-22.729,27.072-44.962,39.521-68.011c1.848-2.84,3.246-6.062,4.751-9.1c10.864-15.766,19.801-33.279,30.173-49.439
		C544.081,1206.139,562.771,1180.549,581.598,1155.044z"/>
	<path style="fill:#FE4F5A;" d="M429.848,1523.071c7.957-2.703,15.956-7.246,23.597-10.84c19.489-9.161,38.459-14.974,60.02-16.816
		c31.053-2.652,60.877,2.718,90.095,13.137c7.281,2.597,15.66,5.29,21.637,10.313c-17.543,0.333-34.959,2.499-52.445,3.783
		c-46.039,3.509-92.028,7.588-137.966,12.236c-2.834-0.38-3.506,0.161-5.441-2.097
		C429.245,1529.516,429.554,1526.325,429.848,1523.071z"/>
</g>
</svg>
