<svg xmlns="http://www.w3.org/2000/svg" version="1.1" xmlns:xlink="http://www.w3.org/1999/xlink" width="15" height="15" x="0" y="0" viewBox="0 0 24 24" style="enable-background:new 0 0 512 512" xml:space="preserve" class=""><g><path d="M12 12c3.309 0 6-2.691 6-6s-2.691-6-6-6-6 2.691-6 6 2.691 6 6 6Zm0-9c1.654 0 3 1.346 3 3s-1.346 3-3 3-3-1.346-3-3 1.346-3 3-3Zm4.934 19.286c.119.82-.357 1.714-1.486 1.714a1.5 1.5 0 0 1-1.482-1.286C13.824 21.736 12.98 21 12.001 21s-1.824.737-1.965 1.714a1.5 1.5 0 1 1-2.969-.429c.353-2.443 2.474-4.286 4.934-4.286s4.582 1.842 4.934 4.286Zm5.038.127a1.5 1.5 0 0 1-1.41 1.585l-.089.002c-.789 0-1.45-.615-1.496-1.413C18.762 18.893 15.697 16 12 16s-6.762 2.894-6.977 6.587a1.5 1.5 0 0 1-2.995-.175c.308-5.278 4.688-9.413 9.972-9.413s9.664 4.134 9.972 9.413Z" fill="#eb2427" opacity="1" data-original="#000000" class=""></path></g></svg>