<svg xmlns="http://www.w3.org/2000/svg" version="1.1" xmlns:xlink="http://www.w3.org/1999/xlink" width="15" height="15" x="0" y="0" viewBox="0 0 512 512" style="enable-background:new 0 0 512 512" xml:space="preserve" class=""><g><path d="M228.267 56c-17.455-37.114-61.692-53.05-98.805-35.595A74.262 74.262 0 0 0 93.867 56H32C14.327 56 0 70.327 0 88c0 17.673 14.327 32 32 32h61.76c17.455 37.114 61.692 53.05 98.805 35.595A74.267 74.267 0 0 0 228.16 120H480c17.673 0 32-14.327 32-32 0-17.673-14.327-32-32-32H228.267zM351.04 181.333c-28.765.051-54.931 16.659-67.221 42.667H32c-17.673 0-32 14.327-32 32 0 17.673 14.327 32 32 32h251.733c17.455 37.114 61.692 53.05 98.805 35.595A74.267 74.267 0 0 0 418.133 288H480c17.673 0 32-14.327 32-32 0-17.673-14.327-32-32-32h-61.76c-12.287-26.001-38.442-42.607-67.2-42.667zM160.96 349.333c-28.758.059-54.913 16.666-67.2 42.667H32c-17.673 0-32 14.327-32 32 0 17.673 14.327 32 32 32h61.76c17.455 37.114 61.692 53.05 98.805 35.595A74.267 74.267 0 0 0 228.16 456H480c17.673 0 32-14.327 32-32 0-17.673-14.327-32-32-32H228.267c-12.304-26.035-38.511-42.648-67.307-42.667z" fill="#eb2427" opacity="1" data-original="#000000"></path></g></svg>