<svg xmlns="http://www.w3.org/2000/svg" version="1.1" xmlns:xlink="http://www.w3.org/1999/xlink" width="15" height="15" x="0" y="0" viewBox="0 0 24 24" style="enable-background:new 0 0 512 512" xml:space="preserve"><g><path d="M20.5 6h-15c-.789 0-1.53-.376-2-.999A2.501 2.501 0 0 1 5.5 4h17c1.972-.034 1.971-2.967 0-3h-17A5.506 5.506 0 0 0 0 6.5v11C0 20.533 2.468 23 5.5 23h15c1.93 0 3.5-1.57 3.5-3.5v-10C24 7.57 22.43 6 20.5 6Zm.5 13.5a.5.5 0 0 1-.5.5h-15A2.503 2.503 0 0 1 3 17.5V8.396c.763.39 1.618.604 2.5.604h15a.5.5 0 0 1 .5.5v10Zm-2-5c-.034 1.972-2.967 1.971-3 0 .034-1.972 2.967-1.971 3 0Z" fill="#eb2427" opacity="1" data-original="#000000"></path></g></svg>