<svg id="a32d6ce3-61e9-41d3-b314-c8dd22027094" height="25" viewBox="0 0 64 64" width="25" xmlns="http://www.w3.org/2000/svg" data-name="line" fill="#eb2427"><path d="m37.523 52.54736h-29.22417a2.30133 2.30133 0 0 1 -2.29883-2.29836v-27.55906h31.52a1.0001 1.0001 0 0 0 0-2h-31.52v-4.69922a2.30143 2.30143 0 0 1 2.29883-2.29883h3.85205v1.73389a3.27345 3.27345 0 0 0 3.27 3.26953h1.02881a1 1 0 1 0 0-2h-1.02879a1.27116 1.27116 0 0 1 -1.27-1.26953v-5.32617a1.27158 1.27158 0 0 1 1.27-1.27h1.02881a1.27116 1.27116 0 0 1 1.26953 1.27v1.59228h-1.25924a1.00011 1.00011 0 0 0 .00005 2h11.6396v1.73389a3.27345 3.27345 0 0 0 3.27 3.26953h1.02881a1.0001 1.0001 0 0 0 0-2h-1.02883a1.27116 1.27116 0 0 1 -1.27-1.26953v-5.32617a1.27158 1.27158 0 0 1 1.27-1.27h1.02881a1.27158 1.27158 0 0 1 1.27 1.27v1.59228h-1.13865a1.0001 1.0001 0 0 0 0 2h11.51855v1.73389a3.27345 3.27345 0 0 0 3.27 3.26953h1.02881a1 1 0 0 0 0-2h-1.02879a1.27116 1.27116 0 0 1 -1.27-1.26953v-5.32617a1.27158 1.27158 0 0 1 1.27-1.27h1.02881a1.27158 1.27158 0 0 1 1.27 1.27v1.59228h-1.1084a1.0001 1.0001 0 0 0 0 2h6.96041a2.30143 2.30143 0 0 1 2.29883 2.29883v4.69922h-16.24801a1.0001 1.0001 0 0 0 0 2h16.248v12.61865a1 1 0 0 0 2 0c.00107-3.99665-.00078-15.51053 0-19.31786a4.30342 4.30342 0 0 0 -4.29883-4.29884h-3.852v-1.59228a3.27356 3.27356 0 0 0 -3.27-3.27h-1.02881a3.27356 3.27356 0 0 0 -3.27 3.27v1.59228h-8.3799v-1.59228a3.27356 3.27356 0 0 0 -3.27-3.27h-1.02883a3.27356 3.27356 0 0 0 -3.27 3.27v1.59228h-8.38039v-1.59228a3.27346 3.27346 0 0 0 -3.26953-3.27h-1.02881a3.27356 3.27356 0 0 0 -3.27 3.27v1.59228h-3.852a4.30341 4.30341 0 0 0 -4.2989 4.29883v34.25828a4.3033 4.3033 0 0 0 4.29883 4.29834h29.22417a1.00016 1.00016 0 0 0 0-1.99998z"/><path d="m49.0835 35.33789a10.92847 10.92847 0 0 0 -10.916 10.916c.5995 14.48253 21.23528 14.4778 21.8325-.00007a10.92858 10.92858 0 0 0 -10.9165-10.91593zm0 19.83252a8.92628 8.92628 0 0 1 -8.916-8.9165c.4895-11.82859 17.34464-11.82466 17.8325.00009a8.92671 8.92671 0 0 1 -8.9165 8.91641z"/><path d="m52.91846 42.79248-4.48291 4.832-2.6543-2.44433a1.00006 1.00006 0 1 0 -1.35449 1.47168l3.38724 3.11917a.99992.99992 0 0 0 1.41016-.05567l5.16016-5.5625a1.00009 1.00009 0 0 0 -1.46586-1.36035z"/><path d="m18.71924 25.66846h-7.707a1 1 0 0 0 0 2h7.707a1.00011 1.00011 0 0 0 0-2z"/><path d="m18.71924 29.75439h-7.707a1 1 0 1 0 0 2h7.707a1.00011 1.00011 0 0 0 0-2z"/></svg>