<svg xmlns="http://www.w3.org/2000/svg" version="1.1" xmlns:xlink="http://www.w3.org/1999/xlink" width="25" height="25" x="0" y="0" viewBox="0 0 128 128" style="enable-background:new 0 0 512 512" xml:space="preserve"><g><path d="M91.022 82.078 80.7 81.117 78.969 78.9l-.268-3.83a27.291 27.291 0 0 0 3.908-3.049 27 27 0 0 0 8.478-18.077l.019-.312a7.746 7.746 0 0 0 6.724-7.672 7.785 7.785 0 0 0-5.79-7.48l.027-.437a4.7 4.7 0 0 0-.27-1.822c.438-.662.872-1.374 1.308-2.15a44.459 44.459 0 0 0 5.118-11.262 7.711 7.711 0 0 0-3.608-9C83.527 7.56 70.037 4.75 64 4.75s-19.528 2.81-30.619 9.056a7.712 7.712 0 0 0-3.607 9 44.368 44.368 0 0 0 5.12 11.255c.452.8.9 1.542 1.364 2.223a4.7 4.7 0 0 0-.236 1.733l.027.43a7.761 7.761 0 0 0-5.88 7.512 7.749 7.749 0 0 0 6.815 7.688l.018.3A27.094 27.094 0 0 0 49.3 75l-.272 3.9-1.728 2.217-10.321.961A25.625 25.625 0 0 0 13.6 107.71v13.79a1.75 1.75 0 0 0 1.75 1.75h97.3a1.749 1.749 0 0 0 1.75-1.75v-13.79a25.624 25.624 0 0 0-23.378-25.632zm-8.24 10.075 4.356 3.506-14.381 24.091H71.2l3.118-16.01a1.134 1.134 0 0 0 .725-.058 1.749 1.749 0 0 0 1.14-1.2l4.9-17.806 4.98.461-3.563 4.578a1.75 1.75 0 0 0 .282 2.438zm-22.42 27.6-3.53-18.125L64 95.989l7.167 5.637-3.529 18.124zm-5.118 0L40.862 95.659l4.355-3.506a1.749 1.749 0 0 0 .283-2.439l-3.57-4.576 4.986-.461 4.9 17.806a1.753 1.753 0 0 0 1.141 1.2 1.134 1.134 0 0 0 .725.058L56.8 119.75zm-.755-20.734-4.356-15.84.728-.931 10.56 11.319zm22.65-16.771.727.931-4.355 15.84-6.933-5.452zM38.861 33.906c6.377-3.144 12.661-4.133 25.139-4.133s18.75.991 25.139 4.142c-3.488 5.614-6.877 6.668-25.139 6.668s-21.647-1.055-25.139-6.677zM94.33 45.96a4.208 4.208 0 0 1-3 4.044l.488-7.923a4.207 4.207 0 0 1 2.512 3.879zM35.1 16.854c11.544-6.5 24.457-8.6 28.9-8.6s17.356 2.1 28.9 8.6a4.231 4.231 0 0 1 1.974 4.946 42.214 42.214 0 0 1-3.921 9.114C83.938 27.379 77.271 26.273 64 26.273s-19.949 1.1-26.951 4.625a42.05 42.05 0 0 1-3.923-9.1 4.231 4.231 0 0 1 1.974-4.944zm-.187 32.1a4.183 4.183 0 0 1-1.242-3 4.259 4.259 0 0 1 2.6-3.916l.492 7.987a4.173 4.173 0 0 1-1.851-1.068zm5.587 4.778-.84-13.645c4.42 3.527 10.838 4 24.343 4 13.775 0 20.083-.441 24.435-4l-.842 13.654a23.592 23.592 0 0 1-47.1 0zM64.04 79.38a27.062 27.062 0 0 0 11.281-2.455l.14 1.988L64 91.2 52.539 78.912l.141-2.037a26.919 26.919 0 0 0 11.36 2.505zM17.1 107.71a22.141 22.141 0 0 1 20.2-22.147l.484-.046 3.894 4.991-4.2 3.379a1.748 1.748 0 0 0-.4 2.26l14.089 23.6H17.1zm93.8 12.04H76.833l14.09-23.6a1.75 1.75 0 0 0-.405-2.26l-4.2-3.38 3.888-4.99.493.046a22.14 22.14 0 0 1 20.2 22.147z" fill="#eb2427" opacity="1" data-original="#000000"></path><path d="M21.651 103.96a1.739 1.739 0 0 0-1.931 1.548 20.5 20.5 0 0 0-.12 2.207v2.577a1.75 1.75 0 0 0 3.5 0v-2.577a16.478 16.478 0 0 1 .1-1.824 1.75 1.75 0 0 0-1.549-1.931z" fill="#eb2427" opacity="1" data-original="#eb2427"></path></g></svg>