<svg id="line" viewBox="0 0 64 64" xmlns="http://www.w3.org/2000/svg" height="25" width="25" fill="#eb2427"><path d="m57 48.50011a.99942.99942 0 0 0 -1 1v5a3.00328 3.00328 0 0 1 -3 3h-44a3.00328 3.00328 0 0 1 -3-3v-26a3.00328 3.00328 0 0 1 3-3h16.41992a1 1 0 0 0 0-2h-16.41992a5.00588 5.00588 0 0 0 -5 5v26a5.00589 5.00589 0 0 0 5 5h44a5.00589 5.00589 0 0 0 5-5v-5a.99942.99942 0 0 0 -1-1z"/><path d="m49.57031 25.50011h3.42969a3.00328 3.00328 0 0 1 3 3v5a1 1 0 1 0 2 0v-5a5.00588 5.00588 0 0 0 -5-5h-3.42969a1 1 0 0 0 0 2z"/><path d="m59 36.50011h-9a5 5 0 0 0 0 10h9a1.003 1.003 0 0 0 1-1v-8a1.003 1.003 0 0 0 -1-1zm-1 8h-8a3 3 0 0 1 0-6h8z"/><circle cx="51" cy="41.5" r="1.5"/><path d="m28 30.50011a11 11 0 1 0 11 11 11.01245 11.01245 0 0 0 -11-11zm0 20a9 9 0 1 1 9-9 9.00984 9.00984 0 0 1 -9 9z"/><path d="m29.81543 38.68468a1 1 0 0 0 2 0 3.24529 3.24529 0 0 0 -2.81543-3.05968v-.48816a1 1 0 0 0 -2 0v.51777a3.40639 3.40639 0 0 0 -2.76172 2.45782c-.15222.74451-.15814 2.559 2.76172 4.02582v3.17065a1.13552 1.13552 0 0 1 -.81543-1.01 1.00007 1.00007 0 0 0 -2 .01661 3.24529 3.24529 0 0 0 2.81543 3.05972v.48816a1 1 0 1 0 2 0v-.51776a3.4064 3.4064 0 0 0 2.76172-2.45783c.15222-.74451.15814-2.559-2.76172-4.02582v-3.17114a1.12917 1.12917 0 0 1 .81543.99384zm-3.61816-.1709a1.26022 1.26022 0 0 1 .80273-.76678v2.05078c-.655-.49978-.86713-.96845-.80273-1.284zm3.60546 5.97265a1.26022 1.26022 0 0 1 -.80273.76679v-2.05078c.655.49975.86713.96844.80273 1.28399z"/><path d="m27.31061 21.99132 8.30517 3.02295a3.94483 3.94483 0 0 0 7.158 2.60528c.12513.02472 3.85749 1.46466 3.89026 1.35224a1.00719 1.00719 0 0 0 .90625-1.42194l-.3916-.84174a8.21609 8.21609 0 0 1 -.27637-6.32617l1.28125-3.51953a7.76671 7.76671 0 0 0 -3.7138-9.51587l.54779-1.50464a.9997.9997 0 1 0 -1.87891-.68359l-.54779 1.50494a7.74948 7.74948 0 0 0 -8.961 4.90229l-1.28125 3.51953a8.222 8.222 0 0 1 -4.27732 4.66893l-.84082.3916a1.00617 1.00617 0 0 0 .08014 1.84572zm11.55658 5.21875a1.92507 1.92507 0 0 1 -1.24152-1.46424l3.13208 1.14a1.94924 1.94924 0 0 1 -1.89056.32424zm-4.63965-11.44141 1.28125-3.51953c2.8186-7.05054 13.1654-3.28595 10.7959 3.92969-1.22321 3.16021-2.67377 6.70459-1.44318 10.07226l-14.72186-5.3584a10.18929 10.18929 0 0 0 4.08789-5.12402z"/></svg>